<svg xmlns="http://www.w3.org/2000/svg" xmlns:xlink="http://www.w3.org/1999/xlink" width="1920" zoomAndPan="magnify" viewBox="0 0 1440 809.999993" height="1080" preserveAspectRatio="xMidYMid meet" version="1.0"><defs><clipPath id="836ca023e8"><path d="M 322.492188 677 L 1117.492188 677 L 1117.492188 721.484375 L 322.492188 721.484375 Z M 322.492188 677 " clip-rule="nonzero"/></clipPath><clipPath id="5ed1ba7c94"><path d="M 539 88.484375 L 901 88.484375 L 901 364 L 539 364 Z M 539 88.484375 " clip-rule="nonzero"/></clipPath><clipPath id="bfc3c908f0"><path d="M 539 88.484375 L 901 88.484375 L 901 112 L 539 112 Z M 539 88.484375 " clip-rule="nonzero"/></clipPath></defs><rect x="-144" width="1728" fill="#ffffff" y="-80.999999" height="971.999992" fill-opacity="1"/><rect x="-144" width="1728" fill="#ffffff" y="-80.999999" height="971.999992" fill-opacity="1"/><g clip-path="url(#836ca023e8)"><path fill="#c5eae2" d="M 1117.253906 699.445312 C 1117.253906 711.59375 939.410156 721.429688 720.007812 721.429688 C 500.605469 721.429688 322.78125 711.59375 322.78125 699.445312 C 322.78125 687.296875 500.625 677.4375 720.027344 677.4375 C 939.425781 677.4375 1117.269531 687.296875 1117.269531 699.445312 Z M 1117.253906 699.445312 " fill-opacity="1" fill-rule="nonzero"/></g><path fill="#a2ddd0" d="M 1044.988281 696.433594 C 1044.988281 696.433594 1021.476562 661.578125 1036.445312 648.222656 C 1045.636719 640.03125 1050.117188 666.253906 1050.117188 666.253906 C 1050.117188 666.253906 1055.335938 616.222656 1072.261719 626.796875 C 1080.542969 631.960938 1063.140625 678.085938 1063.140625 678.085938 C 1063.140625 678.085938 1075.519531 654.085938 1085.285156 660.6875 C 1101.058594 671.3125 1063.472656 696.082031 1063.472656 696.082031 L 1044.953125 696.449219 Z M 1044.988281 696.433594 " fill-opacity="1" fill-rule="nonzero"/><path fill="#e0fbf0" d="M 1053.953125 696.257812 L 1066.117188 639.609375 C 1066.171875 639.3125 1065.996094 638.996094 1065.664062 638.910156 C 1065.347656 638.855469 1065.050781 639.050781 1064.980469 639.363281 L 1052.761719 696.292969 Z M 1053.953125 696.257812 " fill-opacity="1" fill-rule="nonzero"/><path fill="#e0fbf0" d="M 1060.410156 696.136719 L 1082.800781 668.933594 C 1083.011719 668.6875 1082.976562 668.320312 1082.730469 668.125 C 1082.484375 667.917969 1082.117188 667.953125 1081.910156 668.195312 L 1058.90625 696.152344 Z M 1060.410156 696.136719 " fill-opacity="1" fill-rule="nonzero"/><path fill="#e0fbf0" d="M 1049.800781 696.34375 L 1040.59375 654.839844 C 1040.523438 654.523438 1040.226562 654.316406 1039.894531 654.382812 C 1039.5625 654.453125 1039.386719 654.753906 1039.457031 655.085938 L 1048.59375 696.34375 L 1049.785156 696.308594 Z M 1049.800781 696.34375 " fill-opacity="1" fill-rule="nonzero"/><path fill="#a2ddd0" d="M 395.1875 695.453125 C 395.1875 695.453125 425.296875 640.308594 405.304688 633.308594 C 392.105469 628.667969 387.796875 680.242188 387.796875 680.242188 C 387.796875 680.242188 386.609375 623.085938 369.085938 630.382812 C 355.851562 635.898438 373.53125 677.160156 373.53125 677.160156 C 373.53125 677.160156 354.328125 661.578125 351.910156 671.363281 C 348.058594 686.910156 370.152344 695.714844 370.152344 695.714844 L 395.152344 695.417969 Z M 395.1875 695.453125 " fill-opacity="1" fill-rule="nonzero"/><path fill="#e0fbf0" d="M 389.007812 695.523438 L 403.589844 649.832031 C 403.660156 649.589844 403.535156 649.308594 403.292969 649.238281 C 403.027344 649.167969 402.765625 649.289062 402.679688 649.535156 L 388.007812 695.523438 L 389.023438 695.523438 Z M 389.007812 695.523438 " fill-opacity="1" fill-rule="nonzero"/><path fill="#e0fbf0" d="M 385.207031 695.558594 L 374.757812 645.773438 C 374.703125 645.507812 374.460938 645.335938 374.195312 645.40625 C 373.933594 645.457031 373.777344 645.703125 373.828125 645.964844 L 384.226562 695.574219 L 385.207031 695.574219 Z M 385.207031 695.558594 " fill-opacity="1" fill-rule="nonzero"/><path fill="#e0fbf0" d="M 379.832031 695.628906 L 359.980469 678.542969 C 359.773438 678.367188 359.472656 678.402344 359.300781 678.59375 C 359.125 678.789062 359.160156 679.101562 359.351562 679.261719 L 378.378906 695.644531 Z M 379.832031 695.628906 " fill-opacity="1" fill-rule="nonzero"/><g clip-path="url(#5ed1ba7c94)"><path fill="#c1e5fd" d="M 546.59375 88.484375 L 893.457031 88.484375 C 897.394531 88.484375 900.597656 91.667969 900.597656 95.625 L 900.597656 357.105469 C 900.597656 360.695312 897.695312 363.582031 894.121094 363.582031 L 545.964844 363.582031 C 542.375 363.582031 539.488281 360.675781 539.488281 357.105469 L 539.488281 95.625 C 539.488281 91.6875 542.671875 88.484375 546.628906 88.484375 Z M 546.59375 88.484375 " fill-opacity="1" fill-rule="nonzero"/></g><g clip-path="url(#bfc3c908f0)"><path fill="#2f627c" d="M 546.59375 88.484375 L 893.457031 88.484375 C 897.394531 88.484375 900.597656 91.667969 900.597656 95.625 L 900.597656 111.976562 L 539.453125 111.976562 L 539.453125 95.625 C 539.453125 91.6875 542.636719 88.484375 546.59375 88.484375 Z M 546.59375 88.484375 " fill-opacity="1" fill-rule="nonzero"/></g><path fill="#98d4fc" d="M 580.519531 100.246094 C 580.519531 103.046875 582.796875 105.324219 585.597656 105.324219 C 588.398438 105.324219 590.675781 103.046875 590.675781 100.246094 C 590.675781 97.445312 588.398438 95.171875 585.597656 95.171875 C 582.796875 95.171875 580.519531 97.445312 580.519531 100.246094 Z M 580.519531 100.246094 " fill-opacity="1" fill-rule="nonzero"/><path fill="#ffd471" d="M 563.804688 100.230469 C 563.804688 103.03125 566.078125 105.304688 568.878906 105.304688 C 571.679688 105.304688 573.957031 103.03125 573.957031 100.230469 C 573.957031 97.429688 571.679688 95.152344 568.878906 95.152344 C 566.078125 95.152344 563.804688 97.429688 563.804688 100.230469 Z M 563.804688 100.230469 " fill-opacity="1" fill-rule="nonzero"/><path fill="#a2ddd0" d="M 547.085938 100.195312 C 547.085938 102.996094 549.359375 105.269531 552.160156 105.269531 C 554.960938 105.269531 557.238281 102.996094 557.238281 100.195312 C 557.238281 97.394531 554.960938 95.117188 552.160156 95.117188 C 549.359375 95.117188 547.085938 97.394531 547.085938 100.195312 Z M 547.085938 100.195312 " fill-opacity="1" fill-rule="nonzero"/><path fill="#2f627c" d="M 643.664062 252.457031 C 643.175781 252.457031 642.789062 252.074219 642.789062 251.582031 L 642.789062 234.917969 L 610.386719 234.917969 C 609.929688 234.917969 609.546875 234.550781 609.511719 234.113281 L 608.792969 223.976562 C 608.792969 223.785156 608.828125 223.609375 608.914062 223.433594 L 642.753906 169.988281 C 642.914062 169.726562 643.191406 169.585938 643.488281 169.585938 L 659.769531 169.585938 C 660.261719 169.585938 660.644531 169.972656 660.644531 170.460938 L 660.644531 220.175781 L 668.960938 220.175781 C 669.453125 220.175781 669.835938 220.5625 669.835938 221.054688 L 669.835938 234.042969 C 669.835938 234.53125 669.453125 234.917969 668.960938 234.917969 L 660.644531 234.917969 L 660.644531 251.582031 C 660.644531 252.074219 660.261719 252.457031 659.769531 252.457031 Z M 642.789062 220.140625 L 642.789062 195.566406 L 627.316406 220.140625 Z M 642.789062 220.140625 " fill-opacity="1" fill-rule="nonzero"/><path fill="#2f627c" d="M 795.828125 253.578125 C 787.546875 253.578125 780.683594 251.355469 775.398438 246.960938 C 770.074219 242.53125 767.363281 236.597656 767.363281 229.332031 C 767.363281 228.84375 767.746094 228.457031 768.238281 228.457031 L 784.34375 228.457031 C 784.832031 228.457031 785.21875 228.84375 785.21875 229.332031 C 785.21875 232.132812 786.25 234.355469 788.335938 236.140625 C 790.433594 237.929688 793.09375 238.820312 796.210938 238.820312 C 799.800781 238.820312 802.617188 237.875 804.613281 236.019531 C 806.628906 234.164062 807.589844 231.730469 807.589844 228.613281 C 807.589844 221.035156 803.496094 217.339844 795.089844 217.339844 L 786.566406 217.339844 C 786.074219 217.339844 785.691406 216.957031 785.691406 216.464844 L 785.691406 203.863281 C 785.691406 203.371094 786.074219 202.988281 786.566406 202.988281 L 795.144531 202.988281 C 798.960938 202.988281 801.796875 202.042969 803.597656 200.1875 C 805.417969 198.296875 806.296875 195.84375 806.296875 192.660156 C 806.296875 189.472656 805.417969 187.335938 803.652344 185.675781 C 801.882812 184.011719 799.378906 183.171875 796.195312 183.171875 C 793.339844 183.171875 790.90625 183.957031 789 185.515625 C 787.125 187.039062 786.199219 188.984375 786.199219 191.433594 C 786.199219 191.921875 785.8125 192.308594 785.324219 192.308594 L 769.21875 192.308594 C 768.726562 192.308594 768.34375 191.921875 768.34375 191.433594 C 768.34375 187.039062 769.53125 183.046875 771.929688 179.546875 C 774.292969 176.0625 777.636719 173.316406 781.875 171.355469 C 786.074219 169.410156 790.765625 168.429688 795.808594 168.429688 C 804.5625 168.429688 811.546875 170.566406 816.554688 174.804688 C 821.613281 179.058594 824.167969 185.007812 824.167969 192.449219 C 824.167969 196.335938 822.976562 199.957031 820.597656 203.230469 C 818.636719 205.945312 816.117188 208.152344 813.121094 209.796875 C 816.9375 211.476562 819.898438 213.804688 821.929688 216.746094 C 824.273438 220.160156 825.445312 224.222656 825.445312 228.84375 C 825.445312 236.300781 822.679688 242.355469 817.234375 246.855469 C 811.828125 251.320312 804.632812 253.578125 795.792969 253.578125 Z M 795.828125 253.578125 " fill-opacity="1" fill-rule="nonzero"/><path fill="#91cfe8" d="M 683.613281 225.0625 C 691.683594 263.152344 747.632812 263.101562 755.074219 224.867188 C 755.5625 222.347656 755.84375 219.757812 755.84375 217.097656 C 755.894531 206.785156 752.253906 197.316406 746.164062 189.980469 C 741.46875 184.324219 738.335938 177.570312 736.972656 170.425781 C 736.605469 168.535156 735.308594 167.011719 733.609375 166.382812 L 704.691406 166.46875 C 702.992188 167.101562 701.679688 168.570312 701.328125 170.460938 C 700.960938 172.421875 700.4375 174.523438 699.753906 176.535156 C 699.753906 176.570312 699.71875 176.605469 699.71875 176.640625 C 698.054688 181.523438 695.550781 186.113281 692.242188 190.15625 C 686.273438 197.457031 682.703125 206.785156 682.738281 216.9375 C 682.738281 219.703125 683.035156 222.417969 683.613281 225.042969 Z M 683.613281 225.0625 " fill-opacity="1" fill-rule="nonzero"/><path fill="#4693b9" d="M 733.433594 166.382812 L 733.402344 156.421875 L 733.402344 151.679688 C 733.402344 148.824219 731.105469 146.515625 728.253906 146.410156 C 728.324219 146.410156 728.324219 145.988281 728.324219 145.988281 C 728.324219 140.824219 724.085938 136.625 718.921875 136.640625 C 713.757812 136.640625 709.558594 140.878906 709.574219 146.023438 L 709.574219 146.460938 L 709.890625 146.460938 C 707.035156 146.566406 704.777344 148.894531 704.796875 151.765625 L 704.796875 156.511719 L 704.832031 166.46875 Z M 733.433594 166.382812 " fill-opacity="1" fill-rule="nonzero"/><path fill="#387694" d="M 727.832031 146.023438 C 721.933594 145.902344 716 145.902344 710.101562 146.023438 C 709.488281 146.023438 709.488281 146.988281 710.101562 146.988281 C 716 146.863281 721.917969 146.863281 727.832031 146.988281 C 728.445312 146.988281 728.445312 146.042969 727.832031 146.023438 Z M 727.832031 146.023438 " fill-opacity="1" fill-rule="nonzero"/><path fill="#387694" d="M 732.929688 156.265625 C 723.789062 156.265625 714.632812 156.300781 705.476562 156.386719 C 704.867188 156.386719 704.867188 157.351562 705.476562 157.351562 C 714.617188 157.28125 723.773438 157.226562 732.929688 157.226562 C 733.539062 157.226562 733.539062 156.265625 732.929688 156.265625 Z M 732.929688 156.265625 " fill-opacity="1" fill-rule="nonzero"/><path fill="#2f627c" d="M 724.839844 166.433594 C 726.292969 174.3125 727.886719 182.171875 731.773438 189.28125 C 733.996094 193.359375 736.113281 197.175781 737.425781 201.675781 C 738.738281 206.207031 740.035156 210.777344 740.699219 215.449219 C 740.769531 215.921875 741.539062 215.921875 741.46875 215.449219 C 740.28125 207.136719 737.953125 198.59375 733.785156 191.277344 C 729.304688 183.414062 727.257812 175.257812 725.628906 166.453125 Z M 724.839844 166.433594 " fill-opacity="1" fill-rule="nonzero"/><path fill="#2f627c" d="M 701.453125 222.769531 C 702.640625 223.382812 703.796875 224.082031 705.023438 224.589844 C 705.390625 224.746094 705.722656 224.921875 706.144531 224.886719 C 706.914062 224.832031 707.683594 224.1875 708.296875 223.785156 C 708.613281 223.574219 708.910156 223.292969 709.242188 223.101562 C 710.660156 222.3125 710.292969 222.574219 711.117188 222.976562 C 712.339844 223.574219 713.636719 225.394531 715.160156 224.992188 C 715.964844 224.78125 716.804688 224.046875 717.46875 223.554688 C 717.714844 223.363281 717.925781 223.152344 718.1875 222.976562 C 719.132812 222.332031 719.324219 222.367188 720.183594 222.941406 C 721.285156 223.695312 723.246094 225.710938 724.628906 225.464844 C 726.414062 225.167969 727.484375 222.925781 729.113281 222.472656 C 730.6875 222.050781 731.542969 225.148438 733.136719 225.289062 C 734.46875 225.394531 736.445312 223.101562 737.339844 222.277344 C 737.707031 221.945312 737.183594 221.386719 736.796875 221.734375 C 736.042969 222.417969 735.273438 223.066406 734.484375 223.679688 C 733.699219 224.292969 733.367188 224.554688 732.4375 223.90625 C 732.050781 223.644531 731.683594 223.171875 731.335938 222.855469 C 730.792969 222.367188 729.882812 221.246094 729.058594 221.402344 C 728.585938 221.492188 728.097656 222.15625 727.746094 222.4375 C 726.992188 223.046875 725.996094 224.046875 725.050781 224.378906 C 722.878906 225.097656 721.25 221.964844 719.394531 221.527344 C 718.308594 221.261719 717.15625 222.820312 716.382812 223.347656 C 715.265625 224.117188 714.425781 224.292969 713.214844 223.46875 C 712.480469 222.960938 711.746094 222.382812 710.957031 221.945312 C 709.679688 221.246094 708.925781 222.367188 707.859375 223.066406 C 706.929688 223.679688 706.195312 224.117188 705.074219 223.730469 C 703.972656 223.363281 702.835938 222.59375 701.820312 222.066406 C 701.382812 221.839844 700.980469 222.503906 701.417969 222.714844 Z M 701.453125 222.769531 " fill-opacity="1" fill-rule="nonzero"/><path fill="#2f627c" d="M 699.210938 215.835938 C 699.773438 211.144531 700.925781 206.539062 702.136719 201.988281 C 703.324219 197.472656 705.355469 193.585938 707.472656 189.472656 C 711.183594 182.296875 712.570312 174.382812 713.828125 166.46875 L 713.042969 166.46875 C 711.625 175.328125 709.785156 183.539062 705.496094 191.503906 C 701.503906 198.941406 699.421875 207.519531 698.421875 215.871094 C 698.371094 216.359375 699.125 216.34375 699.195312 215.871094 Z M 699.210938 215.835938 " fill-opacity="1" fill-rule="nonzero"/><path fill="#ea3e46" d="M 622.132812 307.792969 L 614.710938 307.792969 L 613.292969 312.027344 L 608.792969 312.027344 L 616.445312 291.496094 L 620.363281 291.496094 L 628.050781 312.027344 L 623.550781 312.027344 L 622.117188 307.792969 Z M 615.847656 304.363281 L 620.976562 304.363281 L 618.386719 296.675781 L 615.832031 304.363281 Z M 615.847656 304.363281 " fill-opacity="1" fill-rule="nonzero"/><path fill="#ea3e46" d="M 645.800781 305.203125 C 645.644531 307.40625 644.820312 309.140625 643.367188 310.417969 C 641.898438 311.695312 639.953125 312.328125 637.539062 312.328125 C 634.914062 312.328125 632.828125 311.453125 631.324219 309.664062 C 629.816406 307.898438 629.046875 305.464844 629.046875 302.367188 L 629.046875 301.105469 C 629.046875 299.128906 629.398438 297.394531 630.082031 295.890625 C 630.761719 294.382812 631.777344 293.226562 633.074219 292.421875 C 634.351562 291.617188 635.859375 291.214844 637.574219 291.214844 C 639.9375 291.214844 641.84375 291.84375 643.296875 293.121094 C 644.75 294.402344 645.574219 296.167969 645.816406 298.460938 L 641.582031 298.460938 C 641.476562 297.132812 641.109375 296.1875 640.460938 295.574219 C 639.832031 294.980469 638.851562 294.679688 637.554688 294.679688 C 636.136719 294.679688 635.085938 295.1875 634.386719 296.203125 C 633.6875 297.21875 633.335938 298.792969 633.300781 300.914062 L 633.300781 302.453125 C 633.300781 304.675781 633.632812 306.289062 634.316406 307.320312 C 635 308.351562 636.050781 308.84375 637.503906 308.84375 C 638.796875 308.84375 639.777344 308.546875 640.445312 307.949219 C 641.109375 307.355469 641.460938 306.425781 641.5625 305.183594 L 645.800781 305.183594 Z M 645.800781 305.203125 " fill-opacity="1" fill-rule="nonzero"/><path fill="#ea3e46" d="M 664.691406 305.203125 C 664.53125 307.40625 663.710938 309.140625 662.257812 310.417969 C 660.785156 311.695312 658.84375 312.328125 656.425781 312.328125 C 653.800781 312.328125 651.71875 311.453125 650.210938 309.664062 C 648.707031 307.898438 647.9375 305.464844 647.9375 302.367188 L 647.9375 301.105469 C 647.9375 299.128906 648.285156 297.394531 648.96875 295.890625 C 649.652344 294.382812 650.667969 293.226562 651.960938 292.421875 C 653.242188 291.617188 654.746094 291.214844 656.460938 291.214844 C 658.824219 291.214844 660.734375 291.84375 662.1875 293.121094 C 663.640625 294.402344 664.460938 296.167969 664.707031 298.460938 L 660.472656 298.460938 C 660.367188 297.132812 660 296.1875 659.351562 295.574219 C 658.71875 294.980469 657.738281 294.679688 656.445312 294.679688 C 655.027344 294.679688 653.976562 295.1875 653.277344 296.203125 C 652.574219 297.21875 652.226562 298.792969 652.191406 300.914062 L 652.191406 302.453125 C 652.191406 304.675781 652.523438 306.289062 653.207031 307.320312 C 653.886719 308.351562 654.9375 308.84375 656.390625 308.84375 C 657.6875 308.84375 658.667969 308.546875 659.332031 307.949219 C 659.980469 307.355469 660.347656 306.425781 660.453125 305.183594 L 664.691406 305.183594 Z M 664.691406 305.203125 " fill-opacity="1" fill-rule="nonzero"/><path fill="#ea3e46" d="M 679.832031 303.136719 L 671.710938 303.136719 L 671.710938 308.632812 L 681.25 308.632812 L 681.25 312.027344 L 667.492188 312.027344 L 667.492188 291.496094 L 681.234375 291.496094 L 681.234375 294.925781 L 671.726562 294.925781 L 671.726562 299.828125 L 679.851562 299.828125 L 679.851562 303.136719 Z M 679.832031 303.136719 " fill-opacity="1" fill-rule="nonzero"/><path fill="#ea3e46" d="M 694.378906 306.636719 C 694.378906 305.847656 694.082031 305.21875 693.523438 304.800781 C 692.960938 304.363281 691.945312 303.925781 690.476562 303.433594 C 689.003906 302.945312 687.851562 302.488281 686.992188 302.035156 C 684.664062 300.773438 683.492188 299.074219 683.492188 296.9375 C 683.492188 295.820312 683.804688 294.839844 684.4375 293.964844 C 685.050781 293.089844 685.960938 292.421875 687.132812 291.933594 C 688.304688 291.441406 689.617188 291.199219 691.070312 291.199219 C 692.523438 291.199219 693.835938 291.460938 694.992188 291.984375 C 696.128906 292.527344 697.023438 293.261719 697.671875 294.242188 C 698.320312 295.222656 698.617188 296.308594 698.617188 297.550781 L 694.378906 297.550781 C 694.378906 296.605469 694.082031 295.871094 693.488281 295.363281 C 692.890625 294.839844 692.050781 294.574219 690.984375 294.574219 C 689.914062 294.574219 689.144531 294.785156 688.566406 295.222656 C 687.988281 295.660156 687.691406 296.238281 687.691406 296.957031 C 687.691406 297.621094 688.023438 298.183594 688.707031 298.636719 C 689.390625 299.09375 690.371094 299.511719 691.683594 299.914062 C 694.101562 300.632812 695.851562 301.527344 696.9375 302.609375 C 698.039062 303.679688 698.582031 305.027344 698.582031 306.621094 C 698.582031 308.386719 697.898438 309.804688 696.550781 310.804688 C 695.203125 311.800781 693.398438 312.328125 691.125 312.328125 C 689.546875 312.328125 688.113281 312.027344 686.800781 311.453125 C 685.488281 310.875 684.523438 310.085938 683.824219 309.070312 C 683.140625 308.054688 682.789062 306.898438 682.789062 305.570312 L 687.042969 305.570312 C 687.042969 307.84375 688.410156 308.964844 691.105469 308.964844 C 692.121094 308.964844 692.890625 308.753906 693.453125 308.351562 C 694.011719 307.949219 694.308594 307.371094 694.308594 306.636719 Z M 694.378906 306.636719 " fill-opacity="1" fill-rule="nonzero"/><path fill="#ea3e46" d="M 712.148438 306.636719 C 712.148438 305.847656 711.851562 305.21875 711.289062 304.800781 C 710.730469 304.363281 709.714844 303.925781 708.246094 303.433594 C 706.773438 302.945312 705.617188 302.488281 704.761719 302.035156 C 702.433594 300.773438 701.257812 299.074219 701.257812 296.9375 C 701.257812 295.820312 701.574219 294.839844 702.203125 293.964844 C 702.816406 293.089844 703.726562 292.421875 704.902344 291.933594 C 706.074219 291.441406 707.386719 291.199219 708.839844 291.199219 C 710.292969 291.199219 711.605469 291.460938 712.761719 291.984375 C 713.898438 292.527344 714.792969 293.261719 715.4375 294.242188 C 716.085938 295.222656 716.382812 296.308594 716.382812 297.550781 L 712.148438 297.550781 C 712.148438 296.605469 711.851562 295.871094 711.253906 295.363281 C 710.660156 294.855469 709.820312 294.574219 708.753906 294.574219 C 707.683594 294.574219 706.914062 294.785156 706.335938 295.222656 C 705.757812 295.660156 705.460938 296.238281 705.460938 296.957031 C 705.460938 297.621094 705.792969 298.183594 706.476562 298.636719 C 707.160156 299.09375 708.140625 299.511719 709.453125 299.914062 C 711.867188 300.632812 713.617188 301.527344 714.703125 302.609375 C 715.808594 303.679688 716.351562 305.027344 716.351562 306.621094 C 716.351562 308.386719 715.667969 309.804688 714.320312 310.804688 C 712.972656 311.800781 711.167969 312.328125 708.890625 312.328125 C 707.316406 312.328125 705.882812 312.027344 704.566406 311.453125 C 703.273438 310.875 702.292969 310.085938 701.59375 309.070312 C 700.910156 308.054688 700.558594 306.898438 700.558594 305.570312 L 704.8125 305.570312 C 704.8125 307.84375 706.179688 308.964844 708.875 308.964844 C 709.890625 308.964844 710.660156 308.753906 711.238281 308.351562 C 711.816406 307.949219 712.097656 307.371094 712.097656 306.636719 Z M 712.148438 306.636719 " fill-opacity="1" fill-rule="nonzero"/><path fill="#ea3e46" d="M 726.449219 312.027344 L 726.449219 291.496094 L 732.769531 291.496094 C 734.574219 291.496094 736.203125 291.898438 737.601562 292.703125 C 739.039062 293.507812 740.140625 294.664062 740.945312 296.167969 C 741.75 297.675781 742.136719 299.371094 742.136719 301.28125 L 742.136719 302.226562 C 742.136719 304.132812 741.75 305.832031 740.945312 307.320312 C 740.15625 308.808594 739.054688 309.964844 737.621094 310.769531 C 736.183594 311.589844 734.574219 311.992188 732.789062 312.011719 Z M 730.6875 294.925781 L 730.6875 308.632812 L 732.734375 308.632812 C 734.398438 308.632812 735.660156 308.089844 736.535156 307.023438 C 737.410156 305.9375 737.847656 304.398438 737.882812 302.382812 L 737.882812 301.296875 C 737.882812 299.199219 737.445312 297.621094 736.585938 296.554688 C 735.730469 295.484375 734.46875 294.945312 732.789062 294.945312 L 730.6875 294.945312 Z M 730.6875 294.925781 " fill-opacity="1" fill-rule="nonzero"/><path fill="#ea3e46" d="M 757.574219 303.136719 L 749.453125 303.136719 L 749.453125 308.632812 L 758.992188 308.632812 L 758.992188 312.027344 L 745.234375 312.027344 L 745.234375 291.496094 L 758.976562 291.496094 L 758.976562 294.925781 L 749.472656 294.925781 L 749.472656 299.828125 L 757.59375 299.828125 L 757.59375 303.136719 Z M 757.574219 303.136719 " fill-opacity="1" fill-rule="nonzero"/><path fill="#ea3e46" d="M 778.179688 312.027344 L 773.945312 312.027344 L 765.714844 298.515625 L 765.714844 312.027344 L 761.480469 312.027344 L 761.480469 291.496094 L 765.714844 291.496094 L 773.960938 305.042969 L 773.960938 291.496094 L 778.179688 291.496094 Z M 778.179688 312.027344 " fill-opacity="1" fill-rule="nonzero"/><path fill="#ea3e46" d="M 782.136719 291.496094 L 786.375 291.496094 L 786.375 312.027344 L 782.136719 312.027344 Z M 782.136719 291.496094 " fill-opacity="1" fill-rule="nonzero"/><path fill="#ea3e46" d="M 802.652344 303.136719 L 794.53125 303.136719 L 794.53125 308.632812 L 804.070312 308.632812 L 804.070312 312.027344 L 790.3125 312.027344 L 790.3125 291.496094 L 804.054688 291.496094 L 804.054688 294.925781 L 794.546875 294.925781 L 794.546875 299.828125 L 802.671875 299.828125 L 802.671875 303.136719 Z M 802.652344 303.136719 " fill-opacity="1" fill-rule="nonzero"/><path fill="#ea3e46" d="M 806.539062 312.027344 L 806.539062 291.496094 L 812.859375 291.496094 C 814.664062 291.496094 816.289062 291.898438 817.691406 292.703125 C 819.125 293.507812 820.230469 294.664062 821.035156 296.167969 C 821.839844 297.675781 822.226562 299.371094 822.226562 301.28125 L 822.226562 302.226562 C 822.226562 304.132812 821.839844 305.832031 821.035156 307.320312 C 820.246094 308.808594 819.144531 309.964844 817.707031 310.769531 C 816.273438 311.589844 814.664062 311.992188 812.878906 312.011719 L 806.523438 312.011719 Z M 810.777344 294.925781 L 810.777344 308.632812 L 812.824219 308.632812 C 814.488281 308.632812 815.75 308.089844 816.625 307.023438 C 817.5 305.9375 817.9375 304.398438 817.972656 302.382812 L 817.972656 301.296875 C 817.972656 299.199219 817.535156 297.621094 816.675781 296.554688 C 815.820312 295.484375 814.558594 294.945312 812.878906 294.945312 L 810.777344 294.945312 Z M 810.777344 294.925781 " fill-opacity="1" fill-rule="nonzero"/><path fill="#ea3e46" d="M 827.511719 307.949219 C 828.210938 307.949219 828.753906 308.160156 829.175781 308.5625 C 829.59375 308.964844 829.789062 309.492188 829.789062 310.101562 C 829.789062 310.714844 829.578125 311.222656 829.175781 311.625 C 828.753906 312.027344 828.210938 312.238281 827.511719 312.238281 C 826.8125 312.238281 826.285156 312.027344 825.867188 311.625 C 825.445312 311.222656 825.253906 310.714844 825.253906 310.101562 C 825.253906 309.492188 825.464844 308.964844 825.867188 308.5625 C 826.285156 308.160156 826.828125 307.949219 827.511719 307.949219 Z M 829.210938 305.726562 L 825.832031 305.726562 L 825.359375 291.496094 L 829.699219 291.496094 L 829.226562 305.726562 Z M 829.210938 305.726562 " fill-opacity="1" fill-rule="nonzero"/><path fill="#ffa18a" d="M 567.882812 419.476562 C 567.199219 418.777344 564.90625 416.625 564.066406 418.128906 C 563.890625 418.425781 563.890625 418.796875 563.960938 419.164062 C 563.347656 418.390625 562.507812 417.726562 561.5625 417.515625 C 560.441406 417.253906 559.742188 418.078125 559.917969 419.144531 C 559.742188 418.96875 559.550781 418.832031 559.320312 418.707031 C 558.867188 418.445312 558.324219 418.128906 557.796875 418.113281 C 556.679688 418.042969 556.484375 419.285156 556.695312 420.144531 C 556.34375 419.933594 555.996094 419.777344 555.574219 419.84375 C 555.171875 419.914062 554.875 420.214844 554.769531 420.617188 C 554.488281 421.71875 555.453125 422.785156 556.046875 423.589844 C 556.207031 423.800781 556.34375 424.046875 556.484375 424.257812 C 555.679688 424.519531 554.859375 424.695312 554.015625 424.78125 C 552.355469 424.90625 550.742188 424.816406 549.082031 424.449219 C 547.714844 424.152344 546.417969 423.890625 545.019531 424.082031 C 542.097656 424.519531 539.644531 426.445312 537.28125 428.074219 C 531.539062 432.082031 525.621094 435.777344 519.546875 439.1875 L 525.097656 448.308594 C 529.597656 444.789062 534.078125 441.183594 538.945312 438.191406 C 541.308594 436.738281 543.8125 435.476562 546.472656 434.671875 C 549.152344 433.867188 551.8125 433.726562 554.59375 433.796875 C 557.132812 433.886719 559.757812 434.023438 562.226562 433.238281 C 564.398438 432.554688 566.183594 431.136719 567.742188 429.492188 C 568.949219 428.214844 570.875 426.515625 570.769531 424.570312 C 570.664062 422.734375 569.089844 420.773438 567.863281 419.496094 Z M 567.882812 419.476562 " fill-opacity="1" fill-rule="nonzero"/><path fill="#ffa18a" d="M 476.046875 652.773438 L 494.585938 652.773438 C 494.460938 650.65625 494.375 648.519531 494.375 646.367188 C 494.410156 639.050781 495.25 631.714844 496.175781 624.449219 C 497.089844 617.449219 498.523438 610.601562 501.007812 604.003906 C 502.339844 600.484375 503.792969 597 504.597656 593.308594 C 505.210938 590.453125 505.367188 587.566406 505.140625 584.675781 L 478.757812 584.675781 C 479.074219 589.859375 479.371094 595.039062 477.691406 600.066406 C 476.761719 602.761719 475.765625 605.421875 475.082031 608.207031 C 474.433594 610.902344 473.996094 613.648438 473.71875 616.414062 C 472.5625 628.039062 474.296875 639.769531 475.816406 651.269531 C 475.871094 651.757812 475.957031 652.25 476.027344 652.757812 Z M 476.046875 652.773438 " fill-opacity="1" fill-rule="nonzero"/><path fill="#ffd471" d="M 494.847656 652.773438 C 495.058594 650.9375 495.25 649.097656 495.425781 647.277344 C 495.425781 647.277344 489.804688 647.890625 474.488281 647.066406 C 474.488281 647.066406 474.714844 649.625 475.011719 652.792969 Z M 494.847656 652.773438 " fill-opacity="1" fill-rule="nonzero"/><path fill="#091317" d="M 516.640625 689.921875 C 516.1875 687.558594 514.542969 685.945312 512.667969 684.703125 C 509.078125 682.289062 497.875 679.085938 496.683594 678.015625 C 494.390625 675.96875 493.953125 672.609375 494.078125 669.667969 C 494.285156 663.433594 495.109375 657.167969 495.617188 650.953125 C 495.617188 650.953125 487.722656 652.878906 474.226562 650.691406 C 474.226562 650.691406 475.136719 661.84375 475.589844 667.425781 C 475.816406 670.15625 476.046875 672.886719 475.851562 675.636719 C 475.660156 678.035156 475.152344 680.378906 474.664062 682.726562 C 474.191406 685.070312 473.71875 687.433594 473.628906 689.832031 L 473.628906 691.144531 C 475.117188 692.667969 478.636719 692.527344 480.300781 692.441406 C 484.5 692.265625 488.527344 691.636719 492.765625 691.898438 C 498.207031 692.25 503.601562 693.125 509.0625 693.335938 C 510.933594 693.40625 512.722656 693.386719 514.402344 693.125 C 516.570312 692.5625 516.765625 690.535156 516.625 689.902344 Z M 516.640625 689.921875 " fill-opacity="1" fill-rule="nonzero"/><path fill="#ffa18a" d="M 444.34375 652.773438 L 462.882812 652.773438 C 462.757812 650.65625 462.652344 648.519531 462.671875 646.367188 C 462.707031 639.050781 463.546875 631.714844 464.472656 624.449219 C 465.386719 617.449219 466.820312 610.601562 469.304688 604.003906 C 470.636719 600.484375 472.089844 597 472.894531 593.308594 C 473.507812 590.453125 473.664062 587.566406 473.4375 584.675781 L 447.074219 584.675781 C 447.390625 589.859375 447.6875 595.039062 446.003906 600.066406 C 445.078125 602.761719 444.082031 605.421875 443.398438 608.207031 C 442.75 610.902344 442.3125 613.648438 442.03125 616.414062 C 440.875 628.039062 442.609375 639.769531 444.132812 651.269531 C 444.203125 651.757812 444.273438 652.25 444.34375 652.773438 Z M 444.34375 652.773438 " fill-opacity="1" fill-rule="nonzero"/><path fill="#ffd471" d="M 463.125 652.773438 C 463.335938 650.9375 463.527344 649.097656 463.703125 647.277344 C 463.703125 647.277344 458.085938 647.890625 442.765625 647.066406 C 442.765625 647.066406 442.996094 649.625 443.292969 652.792969 Z M 463.125 652.773438 " fill-opacity="1" fill-rule="nonzero"/><path fill="#12252e" d="M 484.921875 689.921875 C 484.464844 687.558594 482.820312 685.945312 480.949219 684.703125 C 477.359375 682.289062 466.15625 679.085938 464.964844 678.015625 C 462.671875 675.96875 462.234375 672.609375 462.355469 669.667969 C 462.566406 663.433594 463.371094 657.167969 463.898438 650.953125 C 463.898438 650.953125 456 652.878906 442.503906 650.691406 C 442.503906 650.691406 443.433594 661.84375 443.871094 667.425781 C 444.097656 670.15625 444.324219 672.886719 444.113281 675.636719 C 443.941406 678.035156 443.414062 680.378906 442.925781 682.726562 C 442.453125 685.070312 441.980469 687.433594 441.890625 689.832031 L 441.890625 691.144531 C 443.378906 692.667969 446.898438 692.527344 448.5625 692.441406 C 452.746094 692.265625 456.789062 691.636719 461.027344 691.898438 C 466.46875 692.25 471.863281 693.125 477.324219 693.335938 C 479.195312 693.40625 480.984375 693.386719 482.664062 693.125 C 484.832031 692.5625 485.007812 690.535156 484.902344 689.902344 Z M 484.921875 689.921875 " fill-opacity="1" fill-rule="nonzero"/><path fill="#ffa18a" d="M 465.648438 409.007812 C 471.878906 408.554688 485.445312 391.765625 484.554688 391.835938 C 478.722656 390.242188 476.660156 390.558594 472.753906 389.859375 C 470.707031 389.492188 469.097656 387.84375 468.921875 385.761719 L 468.570312 382.015625 C 473.121094 381.402344 476.957031 377.273438 479.566406 372.230469 C 481.71875 368.082031 483.484375 362.933594 483.328125 357.664062 C 483.328125 357.664062 483.292969 357.054688 483.292969 356.773438 C 482.523438 343.695312 476.132812 333.824219 464 334.171875 C 453.464844 334.472656 445.09375 345.515625 444.289062 358.578125 C 443.921875 364.703125 447.964844 373.804688 449.28125 375.03125 L 450.3125 387.214844 C 450.488281 389.261719 449.140625 390.644531 447.320312 391.890625 C 444.957031 393.515625 439.300781 395.476562 435.976562 396.441406 C 435.976562 396.441406 452.203125 409.988281 465.648438 409.007812 L 465.664062 409.007812 Z M 465.648438 409.007812 " fill-opacity="1" fill-rule="nonzero"/><path fill="#98d4fc" d="M 525.113281 435.828125 C 520.703125 435.914062 518.933594 437.683594 516.710938 436.285156 C 514.4375 434.832031 512.914062 432.449219 511.476562 430.242188 C 508.398438 425.429688 506.402344 420.074219 503.441406 415.207031 C 502.042969 412.878906 500.449219 410.691406 499.101562 408.328125 C 497.683594 405.894531 496.421875 403.390625 494.933594 400.992188 C 494.460938 399.871094 493.917969 398.785156 493.167969 397.734375 C 489.28125 392.328125 480.597656 390.121094 474.976562 390.191406 C 475.609375 394.761719 472.386719 400.886719 464.945312 401.746094 C 455.984375 402.777344 446.882812 401.097656 441.960938 394.375 C 441.960938 394.375 431.054688 397.210938 428.726562 401.535156 C 425.855469 406.890625 426.941406 413.367188 428.953125 418.8125 C 430.128906 421.964844 435.117188 434.515625 435.886719 437.859375 C 437.058594 442.917969 438.058594 448.203125 440.492188 452.824219 C 439.703125 469.035156 435.957031 484.929688 434.050781 501.035156 C 431.949219 518.890625 429.988281 569.238281 430.863281 585.464844 C 430.863281 585.464844 453.847656 588.863281 464.859375 590.140625 C 476.222656 591.453125 487.335938 590.367188 498.59375 588.757812 C 505.246094 587.8125 511.863281 586.832031 518.515625 585.867188 C 516.605469 568.554688 512.109375 551.730469 507.820312 534.910156 C 503.460938 517.773438 499.785156 500.511719 497.859375 482.902344 C 497.507812 479.714844 496.773438 469.421875 496.5625 467.460938 C 496.265625 462.613281 496.109375 457.746094 496.019531 452.894531 C 496.019531 452.527344 496.84375 445.332031 497.734375 443.496094 C 501.9375 448.78125 507.066406 453.578125 513.945312 454.613281 C 517.429688 455.136719 521.175781 454.542969 524.152344 452.582031 C 527.777344 450.183594 530.226562 445.859375 532.78125 442.53125 C 528.230469 441.953125 525.078125 435.8125 525.078125 435.8125 Z M 525.113281 435.828125 " fill-opacity="1" fill-rule="nonzero"/><path fill="#a55852" d="M 484.1875 342.136719 C 483.242188 338.621094 480.949219 335.433594 477.535156 334.171875 C 474.855469 329.988281 469.585938 328.464844 464.878906 328.082031 C 459.554688 327.625 452.691406 326.820312 447.355469 330.375 C 445.058594 331.898438 442.765625 333.804688 439.421875 340.109375 C 436.9375 344.78125 434.941406 352.570312 436.167969 357.472656 C 436.851562 360.167969 437.988281 362.777344 439.792969 364.894531 C 439.859375 364.984375 439.964844 365.070312 440.054688 365.160156 C 437.375 365.527344 434.890625 367.714844 433.417969 369.796875 C 431.5625 372.457031 430.390625 376.46875 431.6875 379.582031 C 432.386719 381.246094 433.839844 382.507812 435.398438 383.328125 C 437.113281 384.222656 438.828125 384.308594 440.71875 384.027344 C 442.660156 383.730469 448.421875 381.296875 449.683594 379.742188 L 449.296875 375.015625 C 450.085938 372.738281 449.15625 367.835938 449.015625 367.03125 C 449.628906 364.179688 451.238281 361.585938 452.902344 359.171875 C 454.09375 357.4375 455.335938 355.773438 457.121094 354.636719 C 458.714844 353.605469 460.5 352.886719 462.199219 352.082031 C 467.34375 349.613281 472.667969 346.078125 474.332031 340.476562 C 476.082031 342.347656 477.707031 344.308594 478.917969 346.65625 C 480.632812 350.035156 482.347656 355.566406 483.328125 359.222656 C 483.328125 359.222656 484.046875 357.945312 484.117188 357.296875 C 484.605469 352.328125 485.550781 347.058594 484.238281 342.136719 Z M 484.1875 342.136719 " fill-opacity="1" fill-rule="nonzero"/><path fill="#7abde1" d="M 441.035156 452.929688 C 442.960938 456.625 446.476562 459.390625 450.609375 460.160156 C 455.285156 461.035156 460.570312 459.636719 464.945312 457.972656 C 472.597656 455.085938 478.214844 448.605469 483.574219 442.671875 C 486.953125 438.910156 490.066406 434.917969 492.589844 430.523438 C 492.710938 430.3125 493.027344 430.488281 492.886719 430.699219 C 488.597656 438.242188 482.523438 444.457031 476.449219 450.585938 C 473.105469 453.929688 469.515625 456.625 465.035156 458.304688 C 460.726562 459.933594 455.5625 461.28125 450.941406 460.5625 C 446.546875 459.878906 442.75 457.011719 440.71875 453.105469 C 440.613281 452.894531 440.929688 452.722656 441.035156 452.929688 Z M 441.035156 452.929688 " fill-opacity="1" fill-rule="nonzero"/><path fill="#7abde1" d="M 441.191406 400.203125 C 446.039062 405.125 449.210938 411.390625 450.996094 418.023438 C 452.011719 421.769531 452.414062 425.675781 453.8125 429.316406 C 455.230469 432.992188 457.296875 436.386719 458.558594 440.152344 C 458.628906 440.378906 458.277344 440.46875 458.207031 440.238281 C 457.015625 436.652344 455.074219 433.394531 453.671875 429.910156 C 452.253906 426.410156 451.800781 422.714844 450.90625 419.074219 C 449.191406 412.144531 445.988281 405.5625 440.945312 400.449219 C 440.789062 400.292969 441.050781 400.046875 441.191406 400.203125 Z M 441.191406 400.203125 " fill-opacity="1" fill-rule="nonzero"/><path fill="#7abde1" d="M 452.867188 445.894531 C 455.792969 440.398438 461.9375 438.542969 467.117188 435.878906 C 472.964844 432.871094 478.09375 428.667969 482.679688 423.976562 C 482.839844 423.800781 483.082031 424.0625 482.941406 424.222656 C 478.707031 428.582031 473.996094 432.484375 468.695312 435.441406 C 463.265625 438.453125 456.335938 440.1875 453.199219 446.050781 C 453.09375 446.261719 452.78125 446.085938 452.886719 445.875 Z M 452.867188 445.894531 " fill-opacity="1" fill-rule="nonzero"/><path fill="#7abde1" d="M 497.386719 443.234375 C 499.363281 439.207031 497.507812 434.796875 495.566406 431.171875 C 495.441406 430.960938 495.757812 430.785156 495.863281 430.980469 C 497.894531 434.742188 499.714844 439.257812 497.683594 443.40625 C 497.578125 443.617188 497.28125 443.441406 497.386719 443.234375 Z M 497.386719 443.234375 " fill-opacity="1" fill-rule="nonzero"/><path fill="#7abde1" d="M 481.070312 392.222656 C 483.484375 394.917969 485.65625 397.894531 486.777344 401.394531 C 488.039062 405.316406 488.386719 409.570312 489.019531 413.648438 C 489.054688 413.875 488.703125 413.964844 488.667969 413.734375 C 488.074219 409.902344 487.722656 405.964844 486.65625 402.21875 C 485.585938 398.453125 483.398438 395.335938 480.824219 392.46875 C 480.683594 392.292969 480.929688 392.046875 481.070312 392.222656 Z M 481.070312 392.222656 " fill-opacity="1" fill-rule="nonzero"/><path fill="#7abde1" d="M 517.167969 436.878906 C 517.167969 436.878906 517.132812 436.84375 517.132812 436.824219 C 517.183594 436.859375 517.238281 436.894531 517.289062 436.914062 C 517.027344 436.878906 516.503906 437.507812 516.34375 437.667969 C 516.082031 437.910156 515.855469 438.171875 515.625 438.453125 C 515.136719 439.050781 514.699219 439.695312 514.347656 440.378906 C 513.648438 441.746094 513.210938 443.234375 513.105469 444.773438 C 513.105469 445 512.738281 445 512.738281 444.773438 C 512.859375 443.003906 513.386719 441.253906 514.296875 439.730469 C 514.59375 439.222656 516.886719 435.898438 517.480469 436.703125 C 517.605469 436.894531 517.308594 437.070312 517.167969 436.878906 Z M 517.167969 436.878906 " fill-opacity="1" fill-rule="nonzero"/><path fill="#7abde1" d="M 499.765625 587.582031 C 496.597656 564.054688 493.621094 540.511719 490.804688 516.929688 C 490.015625 510.261719 489.210938 503.574219 488.457031 496.886719 C 488.421875 496.660156 488.789062 496.675781 488.824219 496.886719 C 491.539062 520.46875 494.425781 544.03125 497.492188 567.574219 C 498.367188 574.246094 499.242188 580.914062 500.132812 587.582031 C 500.167969 587.8125 499.800781 587.8125 499.765625 587.582031 Z M 499.765625 587.582031 " fill-opacity="1" fill-rule="nonzero"/><path fill="#7abde1" d="M 480.789062 589.945312 C 481.085938 576.675781 480.878906 563.390625 480.160156 550.15625 C 480.160156 549.929688 480.511719 549.929688 480.527344 550.15625 C 481.226562 563.410156 481.457031 576.675781 481.140625 589.945312 C 481.140625 590.175781 480.773438 590.175781 480.773438 589.945312 Z M 480.789062 589.945312 " fill-opacity="1" fill-rule="nonzero"/><path fill="#7abde1" d="M 450.960938 586.726562 C 450.90625 563.269531 450.835938 539.777344 450.765625 516.300781 C 450.765625 509.667969 450.730469 503.03125 450.714844 496.398438 C 450.714844 496.167969 451.082031 496.167969 451.082031 496.398438 C 451.136719 519.871094 451.203125 543.347656 451.292969 566.820312 C 451.292969 573.472656 451.328125 580.089844 451.34375 586.726562 C 451.34375 586.953125 450.976562 586.953125 450.976562 586.726562 Z M 450.960938 586.726562 " fill-opacity="1" fill-rule="nonzero"/><path fill="#254d62" d="M 503.6875 426.164062 C 500.605469 426.164062 497.769531 424.503906 496.246094 421.824219 C 494.742188 419.144531 494.792969 415.835938 496.40625 413.210938 L 552.425781 321.253906 C 553.964844 318.699219 556.695312 317.15625 559.707031 317.15625 C 562.71875 317.15625 565.429688 318.679688 566.988281 321.253906 L 622.992188 413.195312 C 624.601562 415.800781 624.652344 419.109375 623.148438 421.804688 C 621.644531 424.503906 618.808594 426.148438 615.707031 426.148438 Z M 503.6875 426.164062 " fill-opacity="1" fill-rule="nonzero"/><path fill="#ffd471" d="M 503.6875 419.96875 L 615.707031 419.96875 C 617.527344 419.96875 618.648438 417.972656 617.6875 416.433594 L 561.683594 324.476562 C 560.773438 322.988281 558.621094 322.988281 557.710938 324.476562 L 501.691406 416.433594 C 500.746094 417.988281 501.867188 419.96875 503.6875 419.96875 Z M 503.6875 419.96875 " fill-opacity="1" fill-rule="nonzero"/><path fill="#254d62" d="M 559.707031 394.863281 C 561.632812 394.863281 563.191406 393.308594 563.191406 391.382812 L 563.191406 352.1875 C 563.191406 350.261719 561.632812 348.703125 559.707031 348.703125 C 557.78125 348.703125 556.222656 350.261719 556.222656 352.1875 L 556.222656 391.382812 C 556.222656 393.308594 557.78125 394.863281 559.707031 394.863281 Z M 559.707031 394.863281 " fill-opacity="1" fill-rule="nonzero"/><path fill="#254d62" d="M 555.871094 405.804688 C 555.871094 407.925781 557.589844 409.640625 559.707031 409.640625 C 561.824219 409.640625 563.539062 407.925781 563.539062 405.804688 C 563.539062 403.6875 561.824219 401.972656 559.707031 401.972656 C 557.589844 401.972656 555.871094 403.6875 555.871094 405.804688 Z M 555.871094 405.804688 " fill-opacity="1" fill-rule="nonzero"/><path fill="#ffa18a" d="M 513.316406 399.871094 C 513.140625 399.574219 512.894531 399.382812 512.617188 399.292969 C 512.617188 399.085938 512.617188 398.890625 512.492188 398.679688 C 512.25 398.277344 511.84375 397.980469 511.371094 397.839844 L 511.234375 397.839844 C 511.335938 397.472656 511.304688 397.054688 510.917969 396.824219 C 510.636719 396.667969 510.304688 396.617188 509.988281 396.597656 L 509.953125 396.597656 C 510.148438 395.496094 508.675781 395.320312 507.871094 395.269531 C 503.757812 395.058594 499.46875 396.386719 496.511719 399.328125 C 495.179688 400.640625 494.128906 402.253906 493.515625 404.003906 C 492.746094 406.191406 493.0625 408.519531 492.328125 410.671875 C 491.066406 414.277344 483.871094 422.578125 482.855469 423.90625 C 482.855469 423.90625 489.507812 426.269531 492.886719 430.417969 C 494.078125 428.316406 495.285156 426.21875 496.476562 424.097656 C 497.664062 422 498.769531 420.054688 500.816406 418.691406 C 503.582031 416.835938 506.347656 414.925781 507.292969 411.53125 C 507.785156 409.761719 507.589844 407.765625 508.519531 406.121094 C 509.394531 404.546875 511.109375 403.984375 512.351562 402.796875 C 513.054688 402.113281 513.894531 400.886719 513.316406 399.871094 L 513.316406 399.835938 Z M 513.316406 399.871094 " fill-opacity="1" fill-rule="nonzero"/><path fill="#29566d" d="M 645.363281 501.457031 L 794.671875 501.457031 L 794.671875 697.394531 L 645.363281 697.394531 Z M 645.363281 501.457031 " fill-opacity="1" fill-rule="nonzero"/><path fill="#4693b9" d="M 640.722656 496.363281 L 799.292969 496.363281 C 802.410156 496.363281 804.945312 498.902344 804.945312 502.015625 L 804.945312 524.667969 C 804.945312 527.785156 802.410156 530.324219 799.292969 530.324219 L 640.707031 530.324219 C 637.589844 530.324219 635.050781 527.785156 635.050781 524.667969 L 635.050781 502.015625 C 635.050781 498.902344 637.589844 496.363281 640.722656 496.363281 Z M 640.722656 496.363281 " fill-opacity="1" fill-rule="nonzero"/><path fill="#98d4fc" d="M 646.675781 510.507812 L 749.734375 510.507812 C 750.992188 510.507812 752.007812 511.523438 752.007812 512.78125 L 752.007812 513.902344 C 752.007812 515.164062 750.992188 516.179688 749.734375 516.179688 L 646.675781 516.179688 C 645.414062 516.179688 644.398438 515.164062 644.398438 513.902344 L 644.398438 512.78125 C 644.398438 511.523438 645.414062 510.507812 646.675781 510.507812 Z M 646.675781 510.507812 " fill-opacity="1" fill-rule="nonzero"/><path fill="#ffd471" d="M 771.335938 513.359375 C 771.335938 514.917969 770.058594 516.195312 768.5 516.195312 C 766.941406 516.195312 765.664062 514.917969 765.664062 513.359375 C 765.664062 511.800781 766.941406 510.523438 768.5 510.523438 C 770.058594 510.523438 771.335938 511.800781 771.335938 513.359375 Z M 771.335938 513.359375 " fill-opacity="1" fill-rule="nonzero"/><path fill="#a2ddd0" d="M 783.066406 513.359375 C 783.066406 514.917969 781.785156 516.195312 780.230469 516.195312 C 778.671875 516.195312 777.394531 514.917969 777.394531 513.359375 C 777.394531 511.800781 778.671875 510.523438 780.230469 510.523438 C 781.785156 510.523438 783.066406 511.800781 783.066406 513.359375 Z M 783.066406 513.359375 " fill-opacity="1" fill-rule="nonzero"/><path fill="#2f627c" d="M 794.792969 513.359375 C 794.792969 514.917969 793.515625 516.195312 791.957031 516.195312 C 790.398438 516.195312 789.121094 514.917969 789.121094 513.359375 C 789.121094 511.800781 790.398438 510.523438 791.957031 510.523438 C 793.515625 510.523438 794.792969 511.800781 794.792969 513.359375 Z M 794.792969 513.359375 " fill-opacity="1" fill-rule="nonzero"/><path fill="#4693b9" d="M 640.722656 534.59375 L 799.308594 534.59375 C 802.425781 534.59375 804.964844 537.132812 804.964844 540.25 L 804.964844 562.902344 C 804.964844 566.015625 802.425781 568.554688 799.308594 568.554688 L 640.722656 568.554688 C 637.609375 568.554688 635.070312 566.015625 635.070312 562.902344 L 635.070312 540.25 C 635.070312 537.132812 637.609375 534.59375 640.722656 534.59375 Z M 640.722656 534.59375 " fill-opacity="1" fill-rule="nonzero"/><path fill="#98d4fc" d="M 646.675781 548.757812 L 749.75 548.757812 C 751.011719 548.757812 752.027344 549.773438 752.027344 551.03125 L 752.027344 552.167969 C 752.027344 553.429688 751.011719 554.445312 749.75 554.445312 L 646.695312 554.445312 C 645.433594 554.445312 644.417969 553.429688 644.417969 552.167969 L 644.417969 551.03125 C 644.417969 549.789062 645.433594 548.757812 646.695312 548.757812 Z M 646.675781 548.757812 " fill-opacity="1" fill-rule="nonzero"/><path fill="#a2ddd0" d="M 771.335938 551.574219 C 771.335938 553.132812 770.058594 554.410156 768.5 554.410156 C 766.941406 554.410156 765.664062 553.132812 765.664062 551.574219 C 765.664062 550.015625 766.941406 548.738281 768.5 548.738281 C 770.058594 548.738281 771.335938 550.015625 771.335938 551.574219 Z M 771.335938 551.574219 " fill-opacity="1" fill-rule="nonzero"/><path fill="#98d4fc" d="M 783.066406 551.574219 C 783.066406 553.132812 781.785156 554.410156 780.230469 554.410156 C 778.671875 554.410156 777.394531 553.132812 777.394531 551.574219 C 777.394531 550.015625 778.671875 548.738281 780.230469 548.738281 C 781.785156 548.738281 783.066406 550.015625 783.066406 551.574219 Z M 783.066406 551.574219 " fill-opacity="1" fill-rule="nonzero"/><path fill="#ffd471" d="M 794.792969 551.574219 C 794.792969 553.132812 793.515625 554.410156 791.957031 554.410156 C 790.398438 554.410156 789.121094 553.132812 789.121094 551.574219 C 789.121094 550.015625 790.398438 548.738281 791.957031 548.738281 C 793.515625 548.738281 794.792969 550.015625 794.792969 551.574219 Z M 794.792969 551.574219 " fill-opacity="1" fill-rule="nonzero"/><path fill="#4693b9" d="M 640.722656 572.808594 L 799.308594 572.808594 C 802.425781 572.808594 804.964844 575.347656 804.964844 578.464844 L 804.964844 601.117188 C 804.964844 604.230469 802.425781 606.769531 799.308594 606.769531 L 640.722656 606.769531 C 637.609375 606.769531 635.070312 604.230469 635.070312 601.117188 L 635.070312 578.464844 C 635.070312 575.347656 637.609375 572.808594 640.722656 572.808594 Z M 640.722656 572.808594 " fill-opacity="1" fill-rule="nonzero"/><path fill="#98d4fc" d="M 646.695312 586.972656 L 749.75 586.972656 C 751.011719 586.972656 752.027344 587.984375 752.027344 589.246094 L 752.027344 590.347656 C 752.027344 591.609375 751.011719 592.625 749.75 592.625 L 646.695312 592.625 C 645.433594 592.625 644.417969 591.609375 644.417969 590.347656 L 644.417969 589.246094 C 644.417969 587.984375 645.433594 586.972656 646.695312 586.972656 Z M 646.695312 586.972656 " fill-opacity="1" fill-rule="nonzero"/><path fill="#2a817d" d="M 771.335938 589.808594 C 771.335938 591.363281 770.058594 592.644531 768.5 592.644531 C 766.941406 592.644531 765.664062 591.363281 765.664062 589.808594 C 765.664062 588.25 766.941406 586.972656 768.5 586.972656 C 770.058594 586.972656 771.335938 588.25 771.335938 589.808594 Z M 771.335938 589.808594 " fill-opacity="1" fill-rule="nonzero"/><path fill="#2f627c" d="M 783.066406 589.808594 C 783.066406 591.363281 781.785156 592.644531 780.230469 592.644531 C 778.671875 592.644531 777.394531 591.363281 777.394531 589.808594 C 777.394531 588.25 778.671875 586.972656 780.230469 586.972656 C 781.785156 586.972656 783.066406 588.25 783.066406 589.808594 Z M 783.066406 589.808594 " fill-opacity="1" fill-rule="nonzero"/><path fill="#ffd471" d="M 794.792969 589.808594 C 794.792969 591.363281 793.515625 592.644531 791.957031 592.644531 C 790.398438 592.644531 789.121094 591.363281 789.121094 589.808594 C 789.121094 588.25 790.398438 586.972656 791.957031 586.972656 C 793.515625 586.972656 794.792969 588.25 794.792969 589.808594 Z M 794.792969 589.808594 " fill-opacity="1" fill-rule="nonzero"/><path fill="#4693b9" d="M 640.722656 611.058594 L 799.308594 611.058594 C 802.425781 611.058594 804.964844 613.597656 804.964844 616.710938 L 804.964844 639.363281 C 804.964844 642.480469 802.425781 645.019531 799.308594 645.019531 L 640.722656 645.019531 C 637.609375 645.019531 635.070312 642.480469 635.070312 639.363281 L 635.070312 616.695312 C 635.070312 613.578125 637.609375 611.039062 640.722656 611.039062 Z M 640.722656 611.058594 " fill-opacity="1" fill-rule="nonzero"/><path fill="#98d4fc" d="M 646.675781 625.203125 L 749.75 625.203125 C 751.011719 625.203125 752.027344 626.21875 752.027344 627.480469 L 752.027344 628.597656 C 752.027344 629.859375 751.011719 630.875 749.75 630.875 L 646.695312 630.875 C 645.433594 630.875 644.417969 629.859375 644.417969 628.597656 L 644.417969 627.480469 C 644.417969 626.21875 645.433594 625.203125 646.695312 625.203125 Z M 646.675781 625.203125 " fill-opacity="1" fill-rule="nonzero"/><path fill="#a2ddd0" d="M 771.335938 628.039062 C 771.335938 629.597656 770.058594 630.875 768.5 630.875 C 766.941406 630.875 765.664062 629.597656 765.664062 628.039062 C 765.664062 626.480469 766.941406 625.203125 768.5 625.203125 C 770.058594 625.203125 771.335938 626.480469 771.335938 628.039062 Z M 771.335938 628.039062 " fill-opacity="1" fill-rule="nonzero"/><path fill="#ffd471" d="M 783.066406 628.039062 C 783.066406 629.597656 781.785156 630.875 780.230469 630.875 C 778.671875 630.875 777.394531 629.597656 777.394531 628.039062 C 777.394531 626.480469 778.671875 625.203125 780.230469 625.203125 C 781.785156 625.203125 783.066406 626.480469 783.066406 628.039062 Z M 783.066406 628.039062 " fill-opacity="1" fill-rule="nonzero"/><path fill="#98d4fc" d="M 794.792969 628.039062 C 794.792969 629.597656 793.515625 630.875 791.957031 630.875 C 790.398438 630.875 789.121094 629.597656 789.121094 628.039062 C 789.121094 626.480469 790.398438 625.203125 791.957031 625.203125 C 793.515625 625.203125 794.792969 626.480469 794.792969 628.039062 Z M 794.792969 628.039062 " fill-opacity="1" fill-rule="nonzero"/><path fill="#4693b9" d="M 640.722656 649.273438 L 799.308594 649.273438 C 802.425781 649.273438 804.964844 651.8125 804.964844 654.925781 L 804.964844 677.578125 C 804.964844 680.695312 802.425781 683.234375 799.308594 683.234375 L 640.722656 683.234375 C 637.609375 683.234375 635.070312 680.695312 635.070312 677.578125 L 635.070312 654.925781 C 635.070312 651.8125 637.609375 649.273438 640.722656 649.273438 Z M 640.722656 649.273438 " fill-opacity="1" fill-rule="nonzero"/><path fill="#98d4fc" d="M 646.675781 663.433594 L 749.75 663.433594 C 751.011719 663.433594 752.027344 664.449219 752.027344 665.710938 L 752.027344 666.832031 C 752.027344 668.089844 751.011719 669.105469 749.75 669.105469 L 646.695312 669.105469 C 645.433594 669.105469 644.417969 668.089844 644.417969 666.832031 L 644.417969 665.691406 C 644.417969 664.449219 645.433594 663.417969 646.695312 663.417969 Z M 646.675781 663.433594 " fill-opacity="1" fill-rule="nonzero"/><path fill="#2a817d" d="M 771.335938 666.253906 C 771.335938 667.8125 770.058594 669.089844 768.5 669.089844 C 766.941406 669.089844 765.664062 667.8125 765.664062 666.253906 C 765.664062 664.695312 766.941406 663.417969 768.5 663.417969 C 770.058594 663.417969 771.335938 664.695312 771.335938 666.253906 Z M 771.335938 666.253906 " fill-opacity="1" fill-rule="nonzero"/><path fill="#98d4fc" d="M 783.066406 666.253906 C 783.066406 667.8125 781.785156 669.089844 780.230469 669.089844 C 778.671875 669.089844 777.394531 667.8125 777.394531 666.253906 C 777.394531 664.695312 778.671875 663.417969 780.230469 663.417969 C 781.785156 663.417969 783.066406 664.695312 783.066406 666.253906 Z M 783.066406 666.253906 " fill-opacity="1" fill-rule="nonzero"/><path fill="#a2ddd0" d="M 794.792969 666.253906 C 794.792969 667.8125 793.515625 669.089844 791.957031 669.089844 C 790.398438 669.089844 789.121094 667.8125 789.121094 666.253906 C 789.121094 664.695312 790.398438 663.417969 791.957031 663.417969 C 793.515625 663.417969 794.792969 664.695312 794.792969 666.253906 Z M 794.792969 666.253906 " fill-opacity="1" fill-rule="nonzero"/><path fill="#2f627c" d="M 644.136719 691.757812 L 795.914062 691.757812 C 797.789062 691.757812 799.308594 693.28125 799.308594 695.15625 L 799.308594 697.429688 C 799.308594 699.304688 797.789062 700.828125 795.914062 700.828125 L 644.136719 700.828125 C 642.265625 700.828125 640.742188 699.304688 640.742188 697.429688 L 640.742188 695.15625 C 640.742188 693.28125 642.265625 691.757812 644.136719 691.757812 Z M 644.136719 691.757812 " fill-opacity="1" fill-rule="nonzero"/><path fill="#29566d" d="M 901.125 635.128906 C 902.28125 630.804688 905.132812 627.179688 908.039062 623.90625 C 914.097656 617.097656 920.574219 610.65625 927.332031 604.527344 L 972.96875 604.527344 C 971.550781 608.117188 969.574219 611.496094 967.050781 614.417969 C 964.828125 616.976562 962.183594 619.058594 959.4375 621.019531 C 956.582031 623.050781 953.78125 625.132812 951.140625 627.480469 C 950.472656 628.039062 949.84375 628.652344 949.195312 629.246094 C 955.953125 631.609375 963.550781 638.15625 970.046875 641.324219 L 967.890625 663.363281 C 962.394531 662.664062 932.285156 656.433594 927.035156 654.699219 C 927.035156 654.699219 918.894531 653.894531 914.429688 652.703125 C 910.875 651.777344 904.222656 648.484375 902.210938 645.265625 C 900.320312 642.253906 900.179688 638.488281 901.089844 635.144531 Z M 901.125 635.128906 " fill-opacity="1" fill-rule="nonzero"/><path fill="#25716d" d="M 854.679688 578.027344 C 864.625 579.390625 898.777344 581.019531 903.417969 580.5625 C 903.503906 580.285156 914.953125 542.488281 930.882812 530.113281 C 941.789062 537.132812 937.328125 567.800781 937.328125 567.800781 C 936.03125 571.074219 934.226562 576.238281 932.808594 579.476562 C 931.585938 582.226562 931.023438 583.3125 928.453125 584.886719 C 925.683594 586.550781 922.570312 587.410156 919.488281 588.160156 C 916.023438 589.019531 912.644531 589.910156 909.351562 591.3125 C 906.0625 592.695312 902.824219 594.183594 899.480469 595.480469 C 896.152344 596.757812 890.410156 598.246094 886.855469 598.558594 C 883.355469 598.839844 851.84375 592.101562 851.84375 591.800781 C 851.84375 587.671875 854.699219 578.007812 854.699219 578.007812 L 854.699219 578.042969 Z M 854.679688 578.027344 " fill-opacity="1" fill-rule="nonzero"/><path fill="#bf7968" d="M 855.1875 573.789062 C 856.082031 573.578125 856.570312 573.457031 857.78125 572.949219 C 858.65625 572.582031 861.753906 571.25 862.542969 571.214844 C 863.085938 571.214844 863.75 571.375 863.941406 571.933594 C 864.152344 572.511719 863.765625 573.125 863.398438 573.542969 C 862.855469 574.15625 862.175781 574.59375 861.4375 574.945312 C 860.878906 575.207031 858.339844 576.886719 856.273438 578.234375 C 858.882812 582.175781 863.417969 586.164062 854.890625 582.648438 C 854.382812 583.59375 860.632812 585.082031 858.867188 588.335938 C 858.988281 589.175781 859.371094 591.207031 856.328125 590.945312 C 858.601562 595.445312 841.570312 590.558594 846.628906 581.980469 C 849.238281 578.867188 846.121094 577.167969 855.1875 573.753906 Z M 855.1875 573.789062 " fill-opacity="1" fill-rule="nonzero"/><path fill="#ffd471" d="M 884.597656 657.992188 L 869.332031 558.4375 C 868.984375 556.179688 866.96875 554.515625 864.605469 554.515625 L 851.285156 554.550781 C 848.957031 554.550781 846.980469 556.195312 846.609375 558.402344 L 829.875 658.148438 L 884.597656 657.957031 Z M 884.597656 657.992188 " fill-opacity="1" fill-rule="nonzero"/><path fill="#ffd471" d="M 899.722656 666.269531 L 814.820312 666.570312 C 814.207031 666.570312 813.699219 666.078125 813.699219 665.449219 L 813.699219 659.355469 C 813.664062 658.742188 814.171875 658.234375 814.785156 658.234375 L 899.6875 657.9375 C 900.300781 657.9375 900.808594 658.429688 900.808594 659.058594 L 900.808594 665.152344 C 900.808594 665.761719 900.335938 666.269531 899.722656 666.269531 Z M 899.722656 666.269531 " fill-opacity="1" fill-rule="nonzero"/><path fill="#fff6e3" d="M 874.867188 594.585938 L 840.535156 594.691406 L 841.832031 586.917969 L 873.675781 586.8125 Z M 874.867188 594.585938 " fill-opacity="1" fill-rule="nonzero"/><path fill="#fff6e3" d="M 872.308594 577.921875 L 843.335938 578.007812 L 844.632812 570.234375 L 871.121094 570.148438 Z M 872.308594 577.921875 " fill-opacity="1" fill-rule="nonzero"/><path fill="#ffbc33" d="M 830.136719 658.429688 C 836.246094 658.429688 842.339844 658.394531 848.433594 658.375 C 858.148438 658.339844 867.882812 658.304688 877.613281 658.269531 C 879.855469 658.269531 882.078125 658.269531 884.320312 658.234375 C 884.632812 658.234375 884.632812 657.746094 884.320312 657.746094 C 878.226562 657.746094 872.117188 657.78125 866.023438 657.796875 C 856.308594 657.832031 846.578125 657.851562 836.84375 657.902344 C 834.621094 657.902344 832.378906 657.902344 830.136719 657.9375 C 829.824219 657.9375 829.824219 658.445312 830.136719 658.445312 Z M 830.136719 658.429688 " fill-opacity="1" fill-rule="nonzero"/><path fill="#bf7968" d="M 860.546875 612.054688 C 852.441406 620.667969 855.996094 621.402344 858.128906 620.25 C 857.585938 623.207031 859.96875 622.769531 860.773438 621.492188 C 868.667969 620.195312 872.136719 607.628906 879.730469 609.992188 C 879.730469 609.992188 878.191406 605.667969 877.316406 598.558594 C 853.597656 599.015625 856.152344 607.328125 862.980469 604.5625 C 853.4375 614.261719 854.523438 612.527344 853.402344 614.070312 C 852.195312 621.839844 860.441406 611.777344 860.546875 612.039062 Z M 860.546875 612.054688 " fill-opacity="1" fill-rule="nonzero"/><path fill="#bf7968" d="M 948.214844 525.632812 C 945.484375 527.730469 936.976562 539.144531 932.199219 536.328125 L 925.789062 506.917969 L 945.273438 502.4375 C 945.273438 502.4375 945.640625 504.308594 946.359375 507.058594 C 947.496094 511.3125 951.121094 515.058594 954.113281 519.503906 C 954.414062 519.960938 948.671875 525.300781 948.214844 525.632812 Z M 948.214844 525.632812 " fill-opacity="1" fill-rule="nonzero"/><path fill="#bf7968" d="M 945.273438 502.417969 C 939.53125 504.449219 932.335938 487.417969 921.640625 481.324219 C 889.097656 475.390625 912.609375 552.433594 945.273438 502.417969 Z M 945.273438 502.417969 " fill-opacity="1" fill-rule="nonzero"/><path fill="#12252e" d="M 905.257812 488.941406 C 903.679688 488.222656 901.808594 488.222656 900.511719 486.945312 C 899.480469 485.945312 898.988281 484.546875 898.742188 483.179688 C 898.027344 479.242188 897.1875 475.8125 898.570312 472.152344 C 900.632812 466.726562 906.550781 463.765625 909.457031 463.222656 C 915.933594 461.980469 925.246094 461.195312 933.195312 463.941406 C 935.296875 464.660156 936.539062 466.65625 938.550781 467.53125 C 951.523438 473.183594 945.46875 487.328125 946.078125 490.199219 C 947.113281 495.121094 950.019531 500.878906 948.339844 505.675781 C 947.496094 508.074219 943.175781 509.875 940.476562 510.121094 C 938.886719 510.261719 937.851562 509.894531 937.046875 509.125 C 936.855469 508.617188 936.835938 508.089844 937.167969 507.601562 C 928.820312 495.015625 943.140625 500.84375 918.753906 489.464844 C 916.496094 487.996094 911.503906 489.308594 907.25 488.1875 C 907.320312 488.554688 906.796875 489.132812 905.394531 488.957031 C 905.359375 488.957031 905.359375 488.921875 905.308594 488.90625 L 905.273438 488.90625 Z M 905.257812 488.941406 " fill-opacity="1" fill-rule="nonzero"/><path fill="#bf7968" d="M 935.136719 493.457031 C 935.347656 495.679688 934.507812 497.570312 932.25 497.832031 C 930.21875 498.042969 928.277344 496.800781 927.820312 494.59375 C 927.367188 492.386719 928.609375 490.339844 930.585938 489.886719 C 934.175781 489.078125 934.945312 491.320312 935.136719 493.457031 Z M 935.136719 493.457031 " fill-opacity="1" fill-rule="nonzero"/><path fill="#2a817d" d="M 876.003906 597.859375 C 883.425781 594.535156 890.5 593.167969 897.726562 590.820312 C 901.457031 589.632812 921.464844 580.441406 923.425781 579.863281 C 923.425781 579.828125 923.460938 579.8125 923.480469 579.742188 C 922.972656 577.957031 922.832031 576.222656 922.761719 574.191406 C 922.675781 571.652344 924.109375 558.925781 924.949219 554.53125 C 925.84375 549.789062 926.699219 545.046875 927.785156 540.371094 C 928.589844 536.835938 929.640625 533.421875 930.917969 530.148438 C 931.199219 531.460938 931.445312 532.667969 931.707031 533.824219 C 933.894531 528.292969 941.457031 522.601562 947.324219 519.820312 C 954.832031 516.25 961.363281 516.6875 968.15625 521.011719 C 975.367188 525.597656 979.726562 531.214844 983.453125 538.8125 C 992.785156 557.773438 995.882812 562.515625 1004.042969 581.28125 C 1008.101562 590.613281 1012.09375 604.320312 1008.609375 616.308594 C 1008.488281 616.207031 1008.242188 616.066406 1008.242188 616.066406 C 991.859375 605.613281 972.425781 604.089844 954.21875 607.488281 C 948.652344 608.519531 937.203125 611.164062 937.203125 611.164062 C 935.507812 607.328125 933.753906 603.480469 932.003906 599.644531 C 929.730469 600.101562 927.507812 600.589844 925.265625 601.324219 C 921.871094 602.445312 918.527344 603.671875 915.09375 604.667969 C 911.664062 605.667969 908.195312 606.542969 904.714844 607.277344 C 897.902344 608.730469 890.988281 609.640625 884.019531 610.042969 C 882.027344 610.164062 875.882812 610.707031 875.882812 610.707031 C 877.964844 603.566406 875.777344 597.808594 876.019531 597.894531 Z M 876.003906 597.859375 " fill-opacity="1" fill-rule="nonzero"/><path fill="#2f627c" d="M 943.015625 627.179688 C 943.523438 635.6875 940.671875 644.476562 940.566406 652.964844 L 918.628906 652.964844 C 917.878906 649.675781 911.417969 621.964844 911.015625 616.46875 C 911.015625 616.46875 908.652344 608.644531 908.023438 604.054688 C 907.53125 600.398438 908.023438 593.011719 910.210938 589.910156 C 912.257812 587.023438 915.691406 585.449219 919.136719 584.992188 C 923.566406 584.414062 928.015625 585.65625 932.144531 587.09375 C 941.195312 590.226562 950.070312 593.957031 958.71875 598.085938 C 959.050781 598.175781 959.367188 598.246094 959.699219 598.347656 C 963.761719 599.59375 967.4375 601.675781 971.394531 603.179688 C 975.316406 604.6875 979.445312 605.542969 983.558594 606.4375 C 987.707031 607.328125 991.824219 608.328125 995.796875 609.832031 C 1000.136719 611.445312 1004.269531 613.527344 1008.171875 616.011719 C 1003.621094 627.042969 994.082031 635.933594 982.386719 638.71875 C 976.191406 640.1875 969.574219 639.996094 963.515625 637.980469 C 960.292969 636.898438 957.371094 635.25 954.519531 633.464844 C 951.523438 631.609375 948.53125 629.824219 945.398438 628.285156 C 944.609375 627.917969 943.820312 627.53125 943.015625 627.179688 L 942.980469 627.199219 Z M 943.015625 627.179688 " fill-opacity="1" fill-rule="nonzero"/><path fill="#12252e" d="M 891.582031 696.800781 C 892.109375 694.035156 894.050781 692.160156 896.257812 690.707031 C 900.476562 687.855469 913.625 684.109375 915.023438 682.867188 C 917.703125 680.449219 918.210938 676.527344 918.105469 673.082031 C 917.84375 665.761719 916.914062 658.410156 916.285156 651.128906 C 916.285156 651.128906 925.546875 653.386719 941.386719 650.832031 C 941.386719 650.832031 940.320312 663.925781 939.777344 670.472656 C 939.515625 673.65625 939.234375 676.878906 939.480469 680.101562 C 939.691406 682.917969 940.304688 685.683594 940.863281 688.414062 C 941.421875 691.179688 941.984375 693.929688 942.054688 696.746094 C 942.054688 697.253906 942.054688 698.289062 942.054688 698.289062 C 940.304688 700.054688 936.171875 699.917969 934.226562 699.828125 C 929.308594 699.617188 924.566406 698.867188 919.59375 699.179688 C 913.203125 699.601562 906.882812 700.632812 900.476562 700.878906 C 898.289062 700.949219 896.1875 700.914062 894.210938 700.617188 C 891.652344 699.953125 891.445312 697.605469 891.582031 696.835938 Z M 891.582031 696.800781 " fill-opacity="1" fill-rule="nonzero"/><path fill="#12252e" d="M 1002.972656 698.8125 C 1000.367188 697.691406 998.964844 695.382812 998.019531 692.933594 C 996.164062 688.207031 995.375 674.550781 994.449219 672.90625 C 992.679688 669.753906 988.953125 668.40625 985.574219 667.777344 C 978.378906 666.429688 970.992188 665.746094 963.742188 664.765625 C 963.742188 664.765625 967.960938 656.222656 968.90625 640.1875 C 968.90625 640.1875 981.460938 644.089844 987.726562 646.035156 C 990.789062 646.980469 993.855469 647.976562 997.039062 648.414062 C 999.824219 648.835938 1002.660156 648.851562 1005.476562 648.886719 C 1008.277344 648.921875 1011.113281 649.011719 1013.863281 649.519531 C 1014.351562 649.625 1015.367188 649.851562 1015.367188 649.851562 C 1016.734375 651.953125 1015.664062 655.941406 1015.160156 657.832031 C 1013.878906 662.578125 1012.113281 667.042969 1011.34375 671.976562 C 1010.363281 678.296875 1009.976562 684.703125 1008.820312 691.007812 C 1008.4375 693.195312 1007.945312 695.207031 1007.210938 697.0625 C 1006.019531 699.425781 1003.65625 699.109375 1002.972656 698.8125 L 1002.957031 698.777344 Z M 1002.972656 698.8125 " fill-opacity="1" fill-rule="nonzero"/><path fill="#a2ddd0" d="M 592.144531 703.488281 C 592.144531 703.488281 558.972656 641.117188 585.914062 641.78125 C 596.996094 642.0625 606.550781 691.636719 606.550781 691.636719 C 606.550781 691.636719 604.382812 646.382812 626.542969 653.492188 C 638.535156 657.324219 620.382812 691.636719 620.382812 691.636719 C 620.382812 691.636719 636.804688 669.472656 646.046875 675.777344 C 661.117188 686.015625 633.460938 703.664062 633.460938 703.664062 L 592.109375 703.488281 Z M 592.144531 703.488281 " fill-opacity="1" fill-rule="nonzero"/><path fill="#a2ddd0" d="M 577.597656 703.433594 C 577.597656 703.433594 571.75 670.417969 558.902344 670.980469 C 549.710938 671.398438 558.007812 693.738281 565.796875 703.398438 C 565.796875 703.398438 577.246094 703.398438 577.597656 703.433594 Z M 577.597656 703.433594 " fill-opacity="1" fill-rule="nonzero"/><path fill="#e0fbf0" d="M 600.179688 703.523438 L 586.351562 654.648438 C 586.261719 654.316406 585.914062 654.121094 585.597656 654.210938 C 585.265625 654.296875 585.074219 654.648438 585.160156 654.980469 L 598.886719 703.523438 Z M 600.179688 703.523438 " fill-opacity="1" fill-rule="nonzero"/><path fill="#e0fbf0" d="M 611.648438 703.574219 L 621.222656 664.03125 C 621.292969 663.714844 621.101562 663.363281 620.765625 663.277344 C 620.433594 663.207031 620.101562 663.398438 620.015625 663.734375 L 610.386719 703.574219 L 611.664062 703.574219 Z M 611.648438 703.574219 " fill-opacity="1" fill-rule="nonzero"/><path fill="#e0fbf0" d="M 571.523438 703.417969 L 562.683594 681.359375 C 562.558594 681.046875 562.191406 680.886719 561.894531 681.011719 C 561.578125 681.132812 561.421875 681.5 561.542969 681.816406 L 570.191406 703.417969 Z M 571.523438 703.417969 " fill-opacity="1" fill-rule="nonzero"/><path fill="#e0fbf0" d="M 621.800781 703.644531 L 639.199219 684.023438 C 639.429688 683.757812 639.410156 683.390625 639.148438 683.144531 C 638.886719 682.902344 638.5 682.9375 638.273438 683.199219 L 620.15625 703.644531 Z M 621.800781 703.644531 " fill-opacity="1" fill-rule="nonzero"/><path fill="#2f627c" d="M 721.863281 406.679688 C 721.863281 407.695312 721.042969 408.535156 720.007812 408.535156 C 718.976562 408.535156 718.152344 407.714844 718.152344 406.679688 L 718.152344 396.351562 C 718.152344 395.320312 718.976562 394.496094 720.007812 394.496094 C 721.042969 394.496094 721.863281 395.320312 721.863281 396.351562 Z M 721.863281 406.679688 " fill-opacity="1" fill-rule="nonzero"/><path fill="#2f627c" d="M 720.027344 454.613281 C 718.992188 454.613281 718.171875 455.433594 718.171875 456.46875 L 718.171875 466.796875 C 718.171875 467.828125 718.992188 468.652344 720.027344 468.652344 C 721.058594 468.652344 721.882812 467.828125 721.882812 466.796875 L 721.882812 456.46875 C 721.882812 455.433594 721.058594 454.613281 720.027344 454.613281 Z M 720.027344 454.613281 " fill-opacity="1" fill-rule="nonzero"/><path fill="#2f627c" d="M 720.027344 388.351562 C 723.859375 388.351562 726.957031 385.253906 726.957031 381.421875 C 726.957031 377.585938 723.859375 374.488281 720.027344 374.488281 C 716.191406 374.488281 713.09375 377.585938 713.09375 381.421875 C 713.09375 385.253906 716.191406 388.351562 720.027344 388.351562 Z M 720.027344 388.351562 " fill-opacity="1" fill-rule="nonzero"/><path fill="#2f627c" d="M 720.027344 474.796875 C 716.191406 474.796875 713.09375 477.894531 713.09375 481.726562 C 713.09375 485.5625 716.191406 488.660156 720.027344 488.660156 C 723.859375 488.660156 726.957031 485.5625 726.957031 481.726562 C 726.957031 477.894531 723.859375 474.796875 720.027344 474.796875 Z M 720.027344 474.796875 " fill-opacity="1" fill-rule="nonzero"/><path fill="#ea3e46" d="M 738.144531 431.574219 C 738.144531 432.175781 738.113281 432.777344 738.054688 433.375 C 737.996094 433.972656 737.910156 434.566406 737.792969 435.15625 C 737.675781 435.746094 737.527344 436.328125 737.355469 436.90625 C 737.179688 437.480469 736.976562 438.046875 736.746094 438.601562 C 736.515625 439.15625 736.257812 439.699219 735.976562 440.230469 C 735.691406 440.761719 735.382812 441.277344 735.050781 441.777344 C 734.714844 442.277344 734.359375 442.757812 733.976562 443.222656 C 733.59375 443.6875 733.191406 444.132812 732.765625 444.558594 C 732.339844 444.984375 731.894531 445.386719 731.429688 445.769531 C 730.964844 446.152344 730.484375 446.507812 729.984375 446.84375 C 729.484375 447.175781 728.96875 447.484375 728.4375 447.769531 C 727.90625 448.050781 727.363281 448.308594 726.808594 448.539062 C 726.253906 448.769531 725.6875 448.972656 725.113281 449.148438 C 724.535156 449.320312 723.953125 449.46875 723.363281 449.585938 C 722.773438 449.703125 722.179688 449.789062 721.582031 449.847656 C 720.980469 449.90625 720.382812 449.9375 719.78125 449.9375 C 719.179688 449.9375 718.578125 449.90625 717.980469 449.847656 C 717.382812 449.789062 716.789062 449.703125 716.199219 449.585938 C 715.609375 449.46875 715.027344 449.320312 714.449219 449.148438 C 713.875 448.972656 713.308594 448.769531 712.753906 448.539062 C 712.199219 448.308594 711.65625 448.050781 711.125 447.769531 C 710.59375 447.484375 710.078125 447.175781 709.578125 446.84375 C 709.078125 446.507812 708.597656 446.152344 708.132812 445.769531 C 707.667969 445.386719 707.222656 444.984375 706.796875 444.558594 C 706.371094 444.132812 705.96875 443.6875 705.585938 443.222656 C 705.203125 442.757812 704.847656 442.277344 704.511719 441.777344 C 704.179688 441.277344 703.867188 440.761719 703.585938 440.230469 C 703.300781 439.699219 703.046875 439.15625 702.816406 438.601562 C 702.585938 438.046875 702.382812 437.480469 702.207031 436.90625 C 702.035156 436.328125 701.886719 435.746094 701.769531 435.15625 C 701.652344 434.566406 701.566406 433.972656 701.503906 433.375 C 701.445312 432.777344 701.417969 432.175781 701.417969 431.574219 C 701.417969 430.972656 701.445312 430.371094 701.503906 429.773438 C 701.566406 429.175781 701.652344 428.582031 701.769531 427.992188 C 701.886719 427.402344 702.035156 426.820312 702.207031 426.242188 C 702.382812 425.667969 702.585938 425.101562 702.816406 424.546875 C 703.046875 423.992188 703.300781 423.449219 703.585938 422.917969 C 703.867188 422.386719 704.179688 421.871094 704.511719 421.371094 C 704.847656 420.871094 705.203125 420.390625 705.585938 419.925781 C 705.96875 419.460938 706.371094 419.015625 706.796875 418.589844 C 707.222656 418.164062 707.667969 417.761719 708.132812 417.378906 C 708.597656 416.996094 709.078125 416.640625 709.578125 416.304688 C 710.078125 415.972656 710.59375 415.664062 711.125 415.378906 C 711.65625 415.09375 712.199219 414.839844 712.753906 414.609375 C 713.308594 414.378906 713.875 414.175781 714.449219 414 C 715.027344 413.828125 715.609375 413.679688 716.199219 413.5625 C 716.789062 413.445312 717.382812 413.359375 717.980469 413.300781 C 718.578125 413.242188 719.179688 413.210938 719.78125 413.210938 C 720.382812 413.210938 720.980469 413.242188 721.582031 413.300781 C 722.179688 413.359375 722.773438 413.445312 723.363281 413.5625 C 723.953125 413.679688 724.535156 413.828125 725.113281 414 C 725.6875 414.175781 726.253906 414.378906 726.808594 414.609375 C 727.363281 414.839844 727.90625 415.09375 728.4375 415.378906 C 728.96875 415.664062 729.484375 415.972656 729.984375 416.304688 C 730.484375 416.640625 730.964844 416.996094 731.429688 417.378906 C 731.894531 417.761719 732.339844 418.164062 732.765625 418.589844 C 733.191406 419.015625 733.59375 419.460938 733.976562 419.925781 C 734.359375 420.390625 734.714844 420.871094 735.050781 421.371094 C 735.382812 421.871094 735.691406 422.386719 735.976562 422.917969 C 736.257812 423.449219 736.515625 423.992188 736.746094 424.546875 C 736.976562 425.101562 737.179688 425.667969 737.355469 426.242188 C 737.527344 426.820312 737.675781 427.402344 737.792969 427.992188 C 737.910156 428.582031 737.996094 429.175781 738.054688 429.773438 C 738.113281 430.371094 738.144531 430.972656 738.144531 431.574219 Z M 738.144531 431.574219 " fill-opacity="1" fill-rule="nonzero"/><path fill="#fbd8da" d="M 726.871094 442.867188 C 726.625 442.867188 726.398438 442.761719 726.222656 442.585938 L 719.78125 436.144531 L 713.339844 442.585938 C 713.164062 442.761719 712.9375 442.867188 712.691406 442.867188 C 712.445312 442.867188 712.21875 442.761719 712.042969 442.585938 L 708.769531 439.3125 C 708.59375 439.136719 708.488281 438.910156 708.488281 438.664062 C 708.488281 438.417969 708.59375 438.191406 708.769531 438.015625 L 715.210938 431.574219 L 708.769531 425.132812 C 708.402344 424.765625 708.402344 424.1875 708.769531 423.820312 L 712.042969 420.546875 C 712.21875 420.371094 712.445312 420.265625 712.691406 420.265625 C 712.9375 420.265625 713.164062 420.371094 713.339844 420.546875 L 719.78125 426.988281 L 726.222656 420.546875 C 726.398438 420.371094 726.644531 420.265625 726.871094 420.265625 C 727.097656 420.265625 727.34375 420.351562 727.519531 420.546875 L 730.792969 423.820312 C 731.160156 424.1875 731.160156 424.765625 730.792969 425.132812 L 724.351562 431.574219 L 730.792969 438.015625 C 731.160156 438.382812 731.160156 438.960938 730.792969 439.328125 L 727.519531 442.601562 C 727.34375 442.777344 727.117188 442.882812 726.871094 442.882812 Z M 726.871094 442.867188 " fill-opacity="1" fill-rule="nonzero"/></svg>