<svg xmlns="http://www.w3.org/2000/svg" xmlns:xlink="http://www.w3.org/1999/xlink" width="1920" zoomAndPan="magnify" viewBox="0 0 1440 809.999993" height="1080" preserveAspectRatio="xMidYMid meet" version="1.0"><defs><clipPath id="d027e331d7"><path d="M 386.496094 159 L 799 159 L 799 691 L 386.496094 691 Z M 386.496094 159 " clip-rule="nonzero"/></clipPath><clipPath id="5b0be1566a"><path d="M 386.496094 259 L 504 259 L 504 690 L 386.496094 690 Z M 386.496094 259 " clip-rule="nonzero"/></clipPath></defs><rect x="-144" width="1728" fill="#ffffff" y="-80.999999" height="971.999992" fill-opacity="1"/><rect x="-144" width="1728" fill="#ffffff" y="-80.999999" height="971.999992" fill-opacity="1"/><g clip-path="url(#d027e331d7)"><path fill="#b0c4ff" d="M 798.21875 444.914062 C 798.242188 461.511719 786.597656 481.707031 772.164062 490.046875 L 430.628906 687.292969 C 423.320312 691.5 416.71875 691.894531 411.960938 689.054688 C 411.855469 689.027344 411.777344 688.949219 411.671875 688.894531 L 395.449219 679.480469 C 390.769531 676.746094 387.851562 670.960938 387.851562 662.726562 L 386.933594 340.269531 C 386.878906 323.675781 398.527344 303.476562 412.960938 295.140625 L 468.460938 263.105469 C 475.453125 259.058594 482.128906 258.453125 487.019531 261.292969 L 503.425781 270.8125 C 503.425781 270.8125 503.425781 270.839844 503.453125 270.839844 C 504.082031 271.207031 504.714844 271.628906 505.316406 272.128906 L 528.191406 291.140625 C 531.816406 291.167969 535.839844 289.984375 539.996094 287.59375 L 754.679688 163.589844 C 761.960938 159.382812 768.535156 158.988281 773.292969 161.75 L 789.855469 171.402344 C 794.5625 174.109375 797.453125 179.894531 797.480469 188.152344 Z M 798.21875 444.914062 " fill-opacity="1" fill-rule="nonzero"/></g><path fill="#b0c4ff" d="M 773.28125 161.757812 C 768.53125 158.996094 761.953125 159.386719 754.691406 163.578125 L 539.984375 287.585938 C 532.984375 291.625 526.300781 292.246094 521.410156 289.402344 L 537.984375 299.039062 C 542.875 301.882812 549.5625 301.261719 556.558594 297.21875 L 771.265625 173.214844 C 778.527344 169.023438 785.105469 168.632812 789.855469 171.394531 Z M 773.28125 161.757812 " fill-opacity="1" fill-rule="nonzero"/><g clip-path="url(#5b0be1566a)"><path fill="#b0c4ff" d="M 468.445312 263.105469 L 412.96875 295.148438 C 398.539062 303.480469 386.878906 323.679688 386.929688 340.265625 L 387.839844 662.71875 C 387.863281 670.957031 390.773438 676.753906 395.460938 679.480469 L 412.035156 689.117188 C 407.347656 686.390625 404.441406 680.59375 404.417969 672.351562 L 403.503906 349.902344 C 403.453125 333.316406 415.113281 313.117188 429.542969 304.78125 L 485.023438 272.742188 C 492.019531 268.699219 498.703125 268.078125 503.59375 270.921875 L 487.019531 261.289062 C 482.128906 258.441406 475.441406 259.066406 468.445312 263.105469 Z M 468.445312 263.105469 " fill-opacity="1" fill-rule="nonzero"/></g><path fill="#7ca2e5" d="M 485.019531 272.742188 C 492.875 268.207031 500.332031 267.976562 505.308594 272.125 L 536.269531 297.839844 C 541.246094 301.984375 548.703125 301.757812 556.558594 297.222656 L 771.265625 173.214844 C 785.695312 164.882812 797.429688 171.570312 797.476562 188.15625 L 798.203125 444.917969 C 798.25 461.503906 786.59375 481.703125 772.164062 490.039062 L 430.625 687.292969 C 416.199219 695.628906 404.460938 688.9375 404.414062 672.351562 L 403.503906 349.902344 C 403.453125 333.316406 415.113281 313.117188 429.542969 304.78125 Z M 485.019531 272.742188 " fill-opacity="1" fill-rule="nonzero"/><path fill="#dde9fe" d="M 612.054688 375.484375 C 612.214844 431.054688 573.171875 498.699219 524.824219 526.628906 C 500.085938 540.910156 477.738281 542.011719 461.753906 532.257812 C 462.019531 532.441406 462.28125 532.597656 462.542969 532.753906 L 450.398438 525.917969 C 434.675781 516.792969 424.976562 497.355469 424.894531 469.742188 C 424.738281 414.171875 463.777344 346.527344 512.101562 318.597656 C 536.417969 304.554688 558.476562 303.242188 574.410156 312.472656 L 586.554688 319.308594 C 586.160156 319.074219 585.765625 318.863281 585.371094 318.679688 C 601.75 327.515625 611.976562 347.214844 612.054688 375.484375 Z M 612.054688 375.484375 " fill-opacity="1" fill-rule="nonzero"/><path fill="#c7d8ef" d="M 586.554688 319.316406 C 570.644531 310.074219 548.574219 311.378906 524.253906 325.4375 C 475.933594 353.363281 436.886719 420.976562 437.042969 476.582031 C 437.121094 504.191406 446.835938 523.582031 462.546875 532.742188 L 450.390625 525.910156 C 434.679688 516.789062 424.964844 497.355469 424.886719 469.75 C 424.730469 414.179688 463.777344 346.527344 512.097656 318.605469 C 536.417969 304.546875 558.488281 303.242188 574.398438 312.484375 Z M 586.554688 319.316406 " fill-opacity="1" fill-rule="nonzero"/><path fill="#dde9fe" d="M 586.53125 319.320312 C 587.539062 319.910156 588.527344 320.539062 589.488281 321.210938 C 590.445312 321.886719 591.378906 322.601562 592.285156 323.355469 C 593.195312 324.113281 594.074219 324.910156 594.925781 325.746094 C 595.773438 326.585938 596.597656 327.460938 597.390625 328.378906 C 598.183594 329.296875 598.949219 330.25 599.683594 331.246094 C 600.417969 332.242188 601.121094 333.273438 601.796875 334.34375 C 602.46875 335.410156 603.109375 336.515625 603.71875 337.660156 C 604.332031 338.800781 604.910156 339.976562 605.453125 341.1875 C 606 342.398438 606.511719 343.644531 606.992188 344.921875 C 607.472656 346.199219 607.921875 347.511719 608.335938 348.851562 C 608.746094 350.191406 609.128906 351.566406 609.472656 352.964844 C 609.820312 354.367188 610.128906 355.800781 610.40625 357.257812 C 610.683594 358.714844 610.925781 360.203125 611.136719 361.714844 C 611.34375 363.226562 611.515625 364.765625 611.652344 366.328125 C 611.792969 367.890625 611.894531 369.472656 611.960938 371.082031 C 612.03125 372.691406 612.0625 374.320312 612.0625 375.96875 C 612.058594 377.621094 612.019531 379.289062 611.949219 380.980469 C 611.875 382.667969 611.769531 384.371094 611.625 386.097656 C 611.484375 387.820312 611.304688 389.554688 611.09375 391.308594 C 610.878906 393.0625 610.632812 394.828125 610.351562 396.605469 C 610.070312 398.382812 609.753906 400.171875 609.402344 401.972656 C 609.054688 403.773438 608.667969 405.582031 608.25 407.398438 C 607.832031 409.214844 607.382812 411.039062 606.898438 412.871094 C 606.410156 414.699219 605.894531 416.535156 605.34375 418.371094 C 604.792969 420.210938 604.210938 422.050781 603.597656 423.894531 C 602.984375 425.734375 602.335938 427.578125 601.660156 429.417969 C 600.980469 431.261719 600.273438 433.097656 599.535156 434.9375 C 598.796875 436.773438 598.03125 438.605469 597.230469 440.433594 C 596.433594 442.261719 595.609375 444.082031 594.753906 445.894531 C 593.898438 447.707031 593.015625 449.511719 592.105469 451.308594 C 591.195312 453.101562 590.257812 454.886719 589.292969 456.660156 C 588.328125 458.433594 587.339844 460.191406 586.328125 461.9375 C 585.3125 463.683594 584.273438 465.414062 583.210938 467.132812 C 582.148438 468.847656 581.0625 470.542969 579.953125 472.222656 C 578.84375 473.90625 577.714844 475.566406 576.5625 477.207031 C 575.410156 478.847656 574.238281 480.46875 573.046875 482.066406 C 571.855469 483.664062 570.644531 485.238281 569.414062 486.789062 C 568.183594 488.339844 566.9375 489.867188 565.671875 491.367188 C 564.410156 492.867188 563.128906 494.339844 561.832031 495.785156 C 560.535156 497.230469 559.226562 498.648438 557.902344 500.039062 C 556.578125 501.425781 555.242188 502.785156 553.890625 504.113281 C 552.542969 505.4375 551.183594 506.734375 549.8125 507.996094 C 548.441406 509.257812 547.058594 510.488281 545.667969 511.683594 C 544.28125 512.878906 542.882812 514.039062 541.476562 515.167969 C 540.070312 516.292969 538.660156 517.378906 537.242188 518.433594 C 535.828125 519.484375 534.40625 520.5 532.980469 521.476562 C 531.554688 522.453125 530.125 523.390625 528.695312 524.292969 C 527.265625 525.191406 525.832031 526.050781 524.402344 526.867188 C 522.96875 527.6875 521.535156 528.464844 520.105469 529.203125 C 518.675781 529.941406 517.25 530.636719 515.824219 531.289062 C 514.398438 531.941406 512.976562 532.554688 511.5625 533.121094 C 510.144531 533.691406 508.734375 534.214844 507.328125 534.695312 C 505.925781 535.175781 504.527344 535.613281 503.140625 536.007812 C 501.75 536.402344 500.371094 536.75 499.003906 537.054688 C 497.632812 537.359375 496.273438 537.621094 494.925781 537.835938 C 493.578125 538.050781 492.242188 538.222656 490.921875 538.347656 C 489.597656 538.472656 488.289062 538.550781 486.996094 538.585938 C 485.703125 538.621094 484.425781 538.613281 483.164062 538.554688 C 481.902344 538.5 480.65625 538.398438 479.429688 538.253906 C 478.203125 538.109375 476.992188 537.917969 475.804688 537.679688 C 474.613281 537.445312 473.445312 537.164062 472.296875 536.839844 C 471.144531 536.515625 470.019531 536.144531 468.914062 535.730469 C 467.808594 535.316406 466.726562 534.859375 465.664062 534.359375 C 464.605469 533.855469 463.570312 533.3125 462.558594 532.722656 C 461.546875 532.136719 460.5625 531.507812 459.601562 530.832031 C 458.640625 530.160156 457.707031 529.445312 456.800781 528.691406 C 455.894531 527.933594 455.015625 527.136719 454.164062 526.300781 C 453.3125 525.460938 452.492188 524.585938 451.695312 523.667969 C 450.902344 522.75 450.140625 521.792969 449.40625 520.800781 C 448.671875 519.804688 447.96875 518.773438 447.292969 517.703125 C 446.621094 516.636719 445.980469 515.527344 445.367188 514.386719 C 444.757812 513.246094 444.179688 512.070312 443.632812 510.859375 C 443.089844 509.648438 442.574219 508.402344 442.09375 507.125 C 441.613281 505.847656 441.167969 504.535156 440.753906 503.195312 C 440.339844 501.851562 439.960938 500.480469 439.617188 499.078125 C 439.269531 497.675781 438.957031 496.246094 438.679688 494.789062 C 438.402344 493.328125 438.160156 491.84375 437.953125 490.332031 C 437.746094 488.820312 437.574219 487.28125 437.433594 485.71875 C 437.296875 484.15625 437.195312 482.574219 437.125 480.964844 C 437.058594 479.355469 437.023438 477.726562 437.027344 476.074219 C 437.03125 474.425781 437.066406 472.757812 437.140625 471.066406 C 437.210938 469.378906 437.320312 467.671875 437.464844 465.949219 C 437.605469 464.226562 437.785156 462.488281 437.996094 460.738281 C 438.207031 458.984375 438.457031 457.21875 438.738281 455.441406 C 439.019531 453.660156 439.335938 451.871094 439.683594 450.074219 C 440.035156 448.273438 440.417969 446.464844 440.835938 444.648438 C 441.253906 442.828125 441.707031 441.007812 442.191406 439.175781 C 442.675781 437.347656 443.195312 435.511719 443.746094 433.675781 C 444.292969 431.835938 444.878906 429.996094 445.492188 428.152344 C 446.105469 426.3125 446.75 424.46875 447.429688 422.628906 C 448.105469 420.785156 448.8125 418.945312 449.550781 417.109375 C 450.289062 415.273438 451.058594 413.441406 451.855469 411.613281 C 452.65625 409.785156 453.480469 407.964844 454.335938 406.152344 C 455.191406 404.339844 456.074219 402.535156 456.984375 400.738281 C 457.894531 398.941406 458.832031 397.160156 459.796875 395.386719 C 460.757812 393.613281 461.746094 391.851562 462.761719 390.105469 C 463.777344 388.359375 464.816406 386.628906 465.878906 384.914062 C 466.941406 383.199219 468.027344 381.5 469.136719 379.820312 C 470.242188 378.140625 471.375 376.480469 472.527344 374.839844 C 473.679688 373.199219 474.851562 371.578125 476.042969 369.980469 C 477.234375 368.382812 478.445312 366.808594 479.675781 365.257812 C 480.90625 363.707031 482.152344 362.179688 483.414062 360.679688 C 484.679688 359.179688 485.960938 357.707031 487.257812 356.261719 C 488.550781 354.8125 489.863281 353.398438 491.1875 352.007812 C 492.511719 350.621094 493.847656 349.261719 495.195312 347.933594 C 496.546875 346.609375 497.90625 345.3125 499.277344 344.050781 C 500.648438 342.785156 502.027344 341.558594 503.417969 340.363281 C 504.808594 339.164062 506.207031 338.003906 507.613281 336.878906 C 509.015625 335.753906 510.429688 334.664062 511.84375 333.613281 C 513.261719 332.5625 514.683594 331.546875 516.109375 330.570312 C 517.535156 329.59375 518.960938 328.652344 520.394531 327.753906 C 521.824219 326.855469 523.253906 325.996094 524.6875 325.175781 C 526.121094 324.359375 527.550781 323.582031 528.980469 322.84375 C 530.414062 322.105469 531.839844 321.410156 533.265625 320.757812 C 534.691406 320.105469 536.109375 319.492188 537.527344 318.925781 C 538.945312 318.355469 540.355469 317.832031 541.757812 317.351562 C 543.164062 316.867188 544.558594 316.429688 545.949219 316.039062 C 547.335938 315.644531 548.714844 315.296875 550.085938 314.988281 C 551.457031 314.683594 552.816406 314.425781 554.164062 314.210938 C 555.511719 313.996094 556.847656 313.824219 558.167969 313.699219 C 559.492188 313.574219 560.796875 313.496094 562.09375 313.460938 C 563.386719 313.425781 564.664062 313.433594 565.925781 313.492188 C 567.1875 313.546875 568.433594 313.648438 569.660156 313.792969 C 570.886719 313.9375 572.097656 314.128906 573.285156 314.363281 C 574.476562 314.601562 575.644531 314.882812 576.792969 315.207031 C 577.941406 315.53125 579.070312 315.902344 580.175781 316.316406 C 581.28125 316.730469 582.363281 317.1875 583.421875 317.6875 C 584.484375 318.1875 585.519531 318.734375 586.53125 319.320312 Z M 586.53125 319.320312 " fill-opacity="1" fill-rule="nonzero"/><path fill="#ffffff" d="M 485.546875 525.984375 C 465.136719 525.984375 452.902344 508.671875 452.820312 479.667969 C 452.679688 430.09375 489.007812 367.164062 532.15625 342.25 C 543.367188 335.773438 554.21875 332.351562 563.542969 332.351562 C 583.953125 332.351562 596.191406 349.664062 596.273438 378.664062 C 596.410156 428.238281 560.078125 491.167969 516.933594 516.085938 C 505.722656 522.5625 494.871094 525.984375 485.546875 525.984375 Z M 485.546875 525.984375 " fill-opacity="1" fill-rule="nonzero"/><path fill="#4075c1" d="M 524.023438 367.425781 L 560.335938 410.027344 L 524.53125 452.699219 C 518.359375 429.960938 514.835938 404.710938 524.023438 367.425781 Z M 524.023438 367.425781 " fill-opacity="1" fill-rule="nonzero"/><path fill="#3168aa" d="M 524.023438 367.425781 L 524.53125 452.699219 L 488.734375 451.378906 Z M 524.023438 367.425781 " fill-opacity="1" fill-rule="nonzero"/><path fill="#92b2f9" d="M 488.757812 458.789062 L 524.625 461.308594 L 524.707031 490.910156 Z M 488.757812 458.789062 " fill-opacity="1" fill-rule="nonzero"/><path fill="#3168aa" d="M 560.359375 417.433594 L 524.707031 490.910156 L 524.625 461.308594 Z M 560.359375 417.433594 " fill-opacity="1" fill-rule="nonzero"/><path fill="#dde9fe" d="M 812.414062 283.042969 C 812.441406 294.113281 804.660156 307.605469 795.007812 313.179688 L 646.417969 398.996094 C 641.578125 401.8125 637.1875 402.074219 634.007812 400.207031 C 633.902344 400.152344 633.773438 400.101562 633.667969 399.996094 L 621.152344 392.738281 C 618.023438 390.921875 616.050781 387.058594 616.050781 381.535156 L 615.394531 213.507812 C 615.367188 202.433594 623.152344 188.917969 632.824219 183.339844 L 781.390625 97.550781 C 786.253906 94.738281 790.644531 94.476562 793.828125 96.316406 L 806.683594 103.785156 C 806.472656 103.652344 806.234375 103.546875 806 103.46875 C 809.523438 105.101562 811.730469 109.125 811.757812 114.988281 Z M 812.414062 283.042969 " fill-opacity="1" fill-rule="nonzero"/><path fill="#c7d8ef" d="M 806.683594 103.796875 C 803.5 101.957031 799.105469 102.210938 794.253906 105.015625 L 645.667969 190.832031 C 636.015625 196.402344 628.230469 209.890625 628.269531 220.964844 L 628.917969 389.015625 C 628.929688 394.515625 630.867188 398.390625 634.007812 400.214844 L 621.144531 392.75 C 618.015625 390.921875 616.0625 387.050781 616.050781 381.535156 L 615.40625 213.5 C 615.375 202.425781 623.164062 188.921875 632.816406 183.351562 L 781.398438 97.550781 C 786.253906 94.742188 790.648438 94.476562 793.816406 96.328125 Z M 806.683594 103.796875 " fill-opacity="1" fill-rule="nonzero"/><path fill="#dde9fe" d="M 794.25 105.019531 C 803.898438 99.449219 811.734375 103.914062 811.765625 114.996094 L 812.410156 283.035156 C 812.441406 294.117188 804.65625 307.617188 795.007812 313.191406 L 646.425781 398.996094 C 636.777344 404.570312 628.941406 400.09375 628.910156 389.011719 L 628.265625 220.972656 C 628.234375 209.890625 636.019531 196.402344 645.667969 190.828125 Z M 794.25 105.019531 " fill-opacity="1" fill-rule="nonzero"/><path fill="#ffffff" d="M 638.605469 392.285156 C 638.382812 391.890625 638.015625 390.847656 638.011719 388.988281 L 637.367188 220.9375 C 637.34375 213.070312 643.351562 202.679688 650.21875 198.714844 L 798.800781 112.90625 C 800.660156 111.832031 801.757812 111.730469 802.074219 111.726562 C 802.292969 112.125 802.660156 113.167969 802.664062 115.023438 L 803.308594 283.074219 C 803.332031 290.945312 797.324219 301.339844 790.457031 305.304688 L 641.875 391.109375 C 640.015625 392.183594 638.917969 392.285156 638.605469 392.285156 Z M 638.605469 392.285156 " fill-opacity="1" fill-rule="nonzero"/><path fill="#5789dc" d="M 706.808594 201.953125 C 714.929688 197.261719 721.511719 201.050781 721.539062 210.351562 C 721.566406 219.683594 715.023438 231.019531 706.90625 235.710938 C 698.816406 240.382812 692.230469 236.628906 692.207031 227.296875 C 692.179688 217.996094 698.71875 206.625 706.808594 201.953125 Z M 706.808594 201.953125 " fill-opacity="1" fill-rule="nonzero"/><path fill="#5789dc" d="M 785.492188 262.464844 C 784.082031 264.875 782.417969 266.992188 780.632812 268.78125 C 779.21875 270.027344 779.09375 270.152344 778.972656 270.234375 C 778.265625 270.816406 778.097656 270.898438 777.976562 270.980469 C 777.726562 271.191406 777.601562 271.273438 777.476562 271.355469 C 777.269531 271.480469 777.101562 271.605469 776.976562 271.6875 C 776.6875 271.855469 776.5625 271.9375 776.394531 272.019531 L 666.0625 335.765625 C 665.9375 335.851562 665.773438 335.933594 665.605469 336.015625 C 665.355469 336.140625 665.234375 336.222656 665.109375 336.265625 C 661.035156 338.136719 657.878906 337.804688 655.804688 335.890625 C 655.015625 335.1875 654.390625 334.230469 653.933594 333.109375 L 679.316406 263.128906 C 680.394531 260.136719 682.429688 257.769531 684.464844 256.605469 C 686.460938 255.441406 688.496094 255.441406 689.617188 257.144531 L 705.652344 282.453125 C 706.730469 284.195312 708.765625 284.238281 710.804688 283.035156 C 712.839844 281.871094 714.875 279.5 715.953125 276.46875 L 742.125 204.371094 C 743.203125 201.378906 745.199219 199.007812 747.234375 197.84375 C 749.269531 196.679688 751.304688 196.679688 752.386719 198.425781 L 785.035156 249.914062 C 786.96875 254.398438 787.445312 257.972656 785.492188 262.464844 Z M 785.492188 262.464844 " fill-opacity="1" fill-rule="nonzero"/><path fill="#b0c4ff" d="M 863.496094 201.910156 L 816.488281 458.644531 C 813.808594 473.320312 799.925781 491.992188 785.492188 500.328125 L 443.957031 697.574219 C 435.78125 702.308594 429.15625 702.703125 425.472656 699.46875 L 409.4375 686.554688 C 406.441406 684.136719 405.230469 679.480469 406.414062 672.957031 L 442.773438 474.398438 C 445.453125 459.722656 459.335938 441.050781 473.769531 432.710938 L 620.074219 348.210938 C 627.933594 343.6875 636.03125 335.773438 642.132812 326.699219 L 680.015625 270.339844 C 686.117188 261.265625 694.210938 253.351562 702.074219 248.828125 L 825.953125 177.265625 C 833.945312 172.664062 840.4375 172.191406 844.199219 175.1875 L 860.050781 187.996094 C 863.363281 190.308594 864.730469 195.070312 863.496094 201.910156 Z M 863.496094 201.910156 " fill-opacity="1" fill-rule="nonzero"/><path fill="#92b2f9" d="M 844.1875 175.191406 C 840.453125 172.183594 833.957031 172.652344 825.949219 177.277344 L 702.078125 248.820312 C 694.226562 253.355469 686.117188 261.265625 680.027344 270.332031 L 642.128906 326.699219 C 636.039062 335.765625 627.929688 343.675781 620.078125 348.210938 L 473.761719 432.71875 C 459.332031 441.050781 445.457031 459.714844 442.765625 474.40625 L 406.421875 672.957031 C 405.226562 679.492188 406.445312 684.140625 409.441406 686.554688 L 425.71875 699.671875 C 422.726562 697.257812 421.507812 692.609375 422.703125 686.074219 L 459.046875 487.523438 C 461.734375 472.832031 475.613281 454.167969 490.042969 445.835938 L 636.359375 361.328125 C 644.210938 356.792969 652.320312 348.882812 658.410156 339.816406 L 696.308594 283.449219 C 702.398438 274.382812 710.503906 266.472656 718.359375 261.9375 L 842.230469 190.394531 C 850.238281 185.769531 856.734375 185.300781 860.46875 188.308594 Z M 844.1875 175.191406 " fill-opacity="1" fill-rule="nonzero"/><path fill="#b0c4ff" d="M 842.230469 190.394531 C 856.65625 182.0625 866.175781 187.214844 863.484375 201.90625 L 816.492188 458.640625 C 813.800781 473.332031 799.925781 491.996094 785.496094 500.328125 L 443.960938 697.585938 C 429.53125 705.917969 420.011719 700.765625 422.703125 686.074219 L 459.046875 487.523438 C 461.734375 472.832031 475.613281 454.167969 490.042969 445.835938 L 636.359375 361.328125 C 644.210938 356.792969 652.320312 348.882812 658.410156 339.816406 L 696.308594 283.449219 C 702.398438 274.382812 710.503906 266.472656 718.359375 261.9375 Z M 842.230469 190.394531 " fill-opacity="1" fill-rule="nonzero"/><path fill="#dde9fe" d="M 619.8125 179.84375 C 619.839844 186.523438 615.132812 194.675781 609.320312 198.042969 L 519.699219 249.800781 C 516.726562 251.507812 514.019531 251.640625 512.101562 250.457031 L 504.449219 246.011719 C 502.558594 244.90625 501.375 242.59375 501.375 239.253906 L 500.980469 137.894531 C 500.980469 131.214844 505.660156 123.089844 511.496094 119.722656 L 601.121094 67.964844 C 604.039062 66.28125 606.691406 66.097656 608.613281 67.230469 L 616.367188 71.726562 C 616.234375 71.648438 616.105469 71.566406 615.945312 71.515625 C 618.078125 72.515625 619.417969 74.933594 619.417969 78.484375 Z M 619.8125 179.84375 " fill-opacity="1" fill-rule="nonzero"/><path fill="#b3c9e2" d="M 616.363281 71.734375 C 614.441406 70.625 611.792969 70.777344 608.863281 72.46875 L 519.242188 124.230469 C 513.421875 127.589844 508.722656 135.726562 508.75 142.40625 L 509.136719 243.769531 C 509.148438 247.085938 510.316406 249.425781 512.210938 250.523438 L 504.449219 246.019531 C 502.5625 244.921875 501.386719 242.582031 501.378906 239.257812 L 500.988281 137.902344 C 500.972656 131.222656 505.667969 123.078125 511.492188 119.71875 L 601.113281 67.964844 C 604.039062 66.273438 606.691406 66.109375 608.601562 67.230469 Z M 616.363281 71.734375 " fill-opacity="1" fill-rule="nonzero"/><path fill="#dde9fe" d="M 608.863281 72.472656 C 614.683594 69.109375 619.410156 71.804688 619.429688 78.488281 L 619.816406 179.847656 C 619.835938 186.527344 615.140625 194.671875 609.320312 198.035156 L 519.699219 249.789062 C 513.878906 253.152344 509.152344 250.449219 509.132812 243.769531 L 508.746094 142.410156 C 508.726562 135.726562 513.421875 127.589844 519.242188 124.226562 Z M 608.863281 72.472656 " fill-opacity="1" fill-rule="nonzero"/><path fill="#ffffff" d="M 564.125 117.96875 C 584.871094 105.988281 601.765625 115.617188 601.832031 139.386719 C 601.902344 163.238281 585.117188 192.316406 564.367188 204.300781 C 543.617188 216.285156 526.796875 206.613281 526.730469 182.761719 C 526.664062 158.992188 543.375 129.953125 564.125 117.96875 Z M 564.125 117.96875 " fill-opacity="1" fill-rule="nonzero"/><path fill="#6a95d3" d="M 558.742188 145.113281 C 559.472656 144.691406 560.222656 144.492188 560.910156 144.605469 L 580.824219 148.085938 C 583.21875 148.484375 583.230469 152.535156 580.84375 155.734375 L 561.015625 182.171875 C 560.328125 183.097656 559.578125 183.765625 558.847656 184.191406 C 556.777344 185.390625 554.851562 184.597656 554.84375 181.914062 L 554.757812 152 C 554.75 149.3125 556.671875 146.3125 558.742188 145.113281 Z M 558.742188 145.113281 " fill-opacity="1" fill-rule="nonzero"/><path fill="#5789dc" d="M 765.355469 405.160156 C 761.46875 426.515625 741.183594 453.792969 720.050781 465.976562 C 707.269531 473.371094 561.753906 557.40625 545.902344 566.582031 C 528.820312 576.4375 517.515625 570.304688 520.691406 552.917969 C 523.894531 535.5 540.375 513.320312 557.453125 503.464844 C 559.5625 502.230469 561.613281 501.191406 563.449219 500.644531 L 563.585938 499.902344 C 567.363281 479.257812 586.992188 452.859375 607.410156 441.058594 C 613.40625 437.609375 618.796875 435.882812 623.34375 435.554688 C 636.644531 406.964844 662.074219 377.363281 688.21875 362.277344 C 721.011719 343.328125 743.046875 354.007812 738.96875 385.828125 C 757.417969 377.335938 768.96875 385.46875 765.355469 405.160156 Z M 765.355469 405.160156 " fill-opacity="1" fill-rule="nonzero"/><path fill="#ffffff" d="M 652.675781 426.351562 C 653.578125 425.832031 654.40625 425.710938 654.863281 426.15625 L 671.183594 442.246094 C 672.355469 443.371094 670.398438 447.136719 667.878906 448.59375 L 659.003906 453.71875 C 657.316406 454.691406 655.710938 456.851562 655.394531 458.570312 L 649.820312 489.03125 C 649.503906 490.746094 647.898438 492.910156 646.210938 493.882812 L 633.023438 501.5 C 631.335938 502.472656 630.234375 501.878906 630.550781 500.160156 L 636.125 469.699219 C 636.441406 467.980469 635.339844 467.386719 633.652344 468.359375 L 624.777344 473.484375 C 622.253906 474.941406 621.378906 472.8125 623.289062 469.90625 L 650.050781 428.9375 C 650.800781 427.792969 651.773438 426.875 652.675781 426.351562 Z M 652.675781 426.351562 " fill-opacity="1" fill-rule="nonzero"/><path fill="#5789dc" d="M 683.855469 524.96875 L 683.210938 528.488281 L 679.878906 530.414062 L 680.523438 526.894531 Z M 683.855469 524.96875 " fill-opacity="1" fill-rule="nonzero"/><path fill="#5789dc" d="M 701.957031 514.511719 L 701.3125 518.035156 L 698.003906 519.945312 L 698.648438 516.425781 Z M 701.957031 514.511719 " fill-opacity="1" fill-rule="nonzero"/><path fill="#5789dc" d="M 711.019531 509.28125 L 710.375 512.800781 L 707.042969 514.726562 L 707.6875 511.203125 Z M 711.019531 509.28125 " fill-opacity="1" fill-rule="nonzero"/><path fill="#5789dc" d="M 676.847656 513.992188 C 678.046875 515.179688 678.347656 517.394531 677.746094 520.683594 C 677.285156 523.207031 676.386719 525.773438 675.078125 528.351562 C 672.769531 532.90625 669.628906 536.335938 665.609375 538.65625 L 656.171875 544.105469 L 660.527344 520.308594 L 670.003906 514.835938 C 673.214844 512.980469 675.503906 512.683594 676.847656 513.992188 Z M 673.710938 525.722656 C 674.042969 524.738281 674.277344 523.863281 674.417969 523.097656 C 674.957031 520.148438 674.792969 518.195312 673.945312 517.226562 C 673.078125 516.265625 671.375 516.507812 668.832031 517.976562 L 663.207031 521.226562 L 659.863281 539.507812 L 665.507812 536.25 C 666.589844 535.621094 667.484375 535.011719 668.214844 534.382812 C 669.519531 533.269531 670.667969 531.863281 671.679688 530.21875 C 672.484375 528.882812 673.164062 527.386719 673.710938 525.722656 " fill-opacity="1" fill-rule="nonzero"/><path fill="#5789dc" d="M 649.003906 526.960938 L 653.148438 545.851562 L 649.671875 547.859375 L 648.601562 542.105469 L 639.351562 547.449219 L 635.523438 556.03125 L 632.273438 557.90625 L 645.421875 529.03125 Z M 640.75 544.289062 L 648.0625 540.066406 L 646.445312 531.589844 L 640.75 544.289062 " fill-opacity="1" fill-rule="nonzero"/><path fill="#5789dc" d="M 631.90625 539.875 C 633.085938 541.070312 633.359375 543.339844 632.761719 546.605469 C 632.109375 550.171875 630.671875 553.636719 628.464844 557.035156 C 625.878906 560.996094 622.667969 564.082031 618.8125 566.308594 C 615.210938 568.390625 612.617188 568.804688 611 567.578125 C 609.59375 566.304688 609.195312 563.898438 609.847656 560.332031 C 610.4375 557.109375 611.734375 553.894531 613.738281 550.691406 C 616.277344 546.585938 619.542969 543.390625 623.480469 541.117188 C 627.605469 538.734375 630.421875 538.324219 631.90625 539.875 Z M 626.339844 556.652344 C 627.960938 553.894531 629.011719 551.199219 629.5 548.546875 C 630.011719 545.746094 629.695312 543.921875 628.570312 543.03125 C 627.445312 542.164062 625.644531 542.425781 623.144531 543.871094 C 620.726562 545.265625 618.59375 547.257812 616.761719 549.832031 C 614.929688 552.410156 613.707031 555.335938 613.101562 558.644531 C 612.617188 561.273438 612.855469 563.128906 613.839844 564.175781 C 614.816406 565.238281 616.78125 564.902344 619.71875 563.207031 C 622.507812 561.59375 624.714844 559.410156 626.339844 556.652344 " fill-opacity="1" fill-rule="nonzero"/><path fill="#5789dc" d="M 598.300781 556.246094 L 594.460938 577.226562 L 606.3125 570.378906 L 605.796875 573.199219 L 590.777344 581.875 L 595.132812 558.078125 Z M 598.300781 556.246094 " fill-opacity="1" fill-rule="nonzero"/><path fill="#5789dc" d="M 588.910156 563.261719 C 589.964844 563.71875 590.304688 565.019531 589.90625 567.183594 C 589.566406 569.050781 588.707031 570.988281 587.308594 573.027344 C 585.933594 575.054688 584.054688 576.765625 581.699219 578.125 L 574.347656 582.375 L 572.507812 592.425781 L 569.339844 594.257812 L 573.695312 570.457031 L 584.214844 564.382812 C 586.300781 563.179688 587.859375 562.808594 588.910156 563.261719 Z M 584.765625 573.09375 C 585.773438 571.960938 586.40625 570.628906 586.695312 569.058594 C 587.015625 567.320312 586.605469 566.492188 585.453125 566.589844 C 584.804688 566.660156 583.878906 567.042969 582.648438 567.753906 L 576.359375 571.386719 L 574.847656 579.636719 L 581.140625 576.003906 C 582.578125 575.171875 583.777344 574.214844 584.765625 573.09375 " fill-opacity="1" fill-rule="nonzero"/><path fill="#5789dc" d="M 568.488281 573.464844 L 566.042969 586.828125 C 565.507812 589.753906 564.695312 592.253906 563.636719 594.269531 C 561.695312 597.949219 558.746094 600.945312 554.785156 603.230469 C 550.847656 605.503906 548.425781 605.613281 547.535156 603.570312 C 547.050781 602.445312 547.070312 600.402344 547.605469 597.476562 L 550.050781 584.113281 L 553.28125 582.25 L 550.585938 596.96875 C 550.269531 598.6875 550.320312 599.949219 550.753906 600.722656 C 551.378906 601.898438 552.804688 601.851562 555.054688 600.554688 C 557.738281 599.003906 559.722656 597.023438 561.042969 594.589844 C 561.75 593.269531 562.25 591.769531 562.5625 590.050781 L 565.257812 575.332031 Z M 568.488281 573.464844 " fill-opacity="1" fill-rule="nonzero"/><path fill="#5789dc" d="M 692.917969 519.734375 L 692.273438 523.253906 L 688.941406 525.179688 L 689.585938 521.660156 Z M 692.917969 519.734375 " fill-opacity="1" fill-rule="nonzero"/><path fill="#fc6c85" d="M 691.289062 694.789062 L 702.632812 685.960938 C 708.136719 681.671875 714.667969 678.921875 721.570312 677.96875 C 724.355469 677.589844 727.121094 677.34375 729.859375 677.265625 C 735.128906 677.097656 740.085938 674.523438 742.960938 670.101562 C 748.441406 661.6875 748.328125 650.53125 744.144531 637.359375 L 711.683594 626.984375 L 696.042969 645.640625 C 694.320312 647.6875 692.261719 649.421875 689.949219 650.753906 C 671.03125 661.609375 654.902344 672.730469 652.574219 686.742188 C 649.328125 707.054688 673.636719 707.074219 691.289062 694.789062 Z M 691.289062 694.789062 " fill-opacity="1" fill-rule="nonzero"/><path fill="#f95070" d="M 691.289062 694.789062 L 702.632812 685.960938 C 708.136719 681.671875 714.667969 678.921875 721.570312 677.96875 C 724.355469 677.589844 727.121094 677.34375 729.859375 677.265625 C 735.128906 677.097656 740.085938 674.523438 742.960938 670.101562 C 747.78125 662.707031 748.273438 653.195312 745.476562 642.046875 C 746.113281 649.390625 744.882812 655.824219 741.414062 661.148438 C 738.539062 665.570312 733.585938 668.144531 728.316406 668.3125 C 725.574219 668.390625 722.8125 668.636719 720.027344 669.015625 C 713.125 669.96875 706.59375 672.722656 701.089844 677.007812 L 689.746094 685.835938 C 675.863281 695.492188 657.863281 697.550781 652.394531 688.109375 C 650.449219 707.054688 674.039062 706.796875 691.289062 694.789062 Z M 691.289062 694.789062 " fill-opacity="1" fill-rule="nonzero"/><path fill="#fc6c85" d="M 766.4375 661.800781 C 761.265625 669.308594 756.066406 676.304688 750.792969 682.09375 C 746.800781 686.46875 742.082031 690.125 736.855469 692.90625 C 721.796875 700.921875 711.460938 709.683594 707.628906 718.8125 C 704.632812 725.957031 708.023438 734.148438 714.984375 737.550781 C 728.375 744.09375 745.152344 735.558594 761.207031 720.90625 C 763.742188 718.59375 767.117188 717.40625 770.546875 717.535156 C 773.246094 717.632812 775.835938 717.609375 778.28125 717.425781 C 789.125 716.613281 797.769531 708.035156 798.734375 697.203125 L 800.058594 682.382812 Z M 766.4375 661.800781 " fill-opacity="1" fill-rule="nonzero"/><path fill="#f95070" d="M 714.980469 737.546875 C 728.371094 744.09375 745.152344 735.554688 761.203125 720.90625 C 763.742188 718.589844 767.109375 717.402344 770.542969 717.539062 C 773.25 717.640625 775.835938 717.605469 778.285156 717.425781 C 789.125 716.609375 797.773438 708.039062 798.734375 697.207031 L 800.054688 682.378906 L 797 680.507812 L 796.496094 686.195312 C 795.535156 697.039062 786.886719 705.609375 776.046875 706.425781 C 773.597656 706.605469 771.015625 706.628906 768.308594 706.527344 C 764.875 706.402344 761.507812 707.589844 758.96875 709.90625 C 742.914062 724.554688 726.136719 733.09375 712.746094 726.546875 C 710.285156 725.339844 708.257812 723.535156 706.828125 721.386719 C 705.484375 727.832031 708.851562 734.546875 714.980469 737.546875 Z M 714.980469 737.546875 " fill-opacity="1" fill-rule="nonzero"/><path fill="#353437" d="M 908.871094 481.46875 L 795.019531 505.074219 C 787.371094 506.660156 780.726562 511.351562 776.671875 518.027344 L 711.003906 626.210938 C 705.789062 637.773438 735.859375 650.421875 743.875 639.792969 L 811.402344 562.515625 C 814.042969 559.53125 817.578125 557.480469 821.484375 556.679688 L 900.859375 540.382812 L 932.179688 523.226562 L 915.773438 483.6875 Z M 908.871094 481.46875 " fill-opacity="1" fill-rule="nonzero"/><path fill="#1a1a1c" d="M 722.175781 641.199219 C 730.105469 644.589844 739.816406 645.171875 743.875 639.789062 L 811.398438 562.519531 C 814.035156 559.53125 817.582031 557.484375 821.488281 556.675781 L 900.855469 540.382812 L 932.175781 523.230469 L 920.003906 493.875 C 912.140625 496.449219 907.308594 504.292969 900.417969 508.917969 C 890.125 515.808594 876.703125 514.746094 864.320312 514.679688 C 854.285156 514.625 844.25 515.394531 834.351562 516.984375 C 826.980469 518.171875 819.292969 520.007812 813.847656 525.109375 C 808.5 530.121094 806.105469 537.5625 801.273438 543.082031 C 796.84375 548.148438 790.636719 551.292969 785.703125 555.882812 C 779.371094 561.769531 775.410156 569.78125 769.558594 576.148438 C 765.542969 580.511719 760.679688 584.058594 757.019531 588.726562 C 751.101562 596.257812 748.808594 606.046875 743.375 613.925781 C 738.953125 620.328125 732.65625 625.195312 727.769531 631.238281 C 725.398438 634.171875 723.351562 637.605469 722.175781 641.199219 Z M 722.175781 641.199219 " fill-opacity="1" fill-rule="nonzero"/><path fill="#353437" d="M 917.382812 515.644531 L 859.8125 527.625 C 853.269531 528.988281 847.546875 532.917969 843.929688 538.535156 L 767.554688 658.441406 C 759.894531 670.066406 793.824219 692.445312 801.484375 680.824219 L 872.695312 602.972656 C 875.796875 599.582031 880.457031 598.082031 884.953125 599.015625 C 910.398438 604.289062 934.664062 606.894531 957.191406 605.554688 C 967.109375 604.960938 976.75 601.753906 984.835938 595.972656 C 999.320312 585.617188 1006.511719 570.246094 1005.320312 549.101562 L 941.128906 504.203125 Z M 917.382812 515.644531 " fill-opacity="1" fill-rule="nonzero"/><path fill="#1a1a1c" d="M 784.246094 681.414062 C 791.304688 684.695312 798.453125 685.421875 801.484375 680.824219 L 872.699219 602.972656 C 875.796875 599.582031 880.449219 598.082031 884.957031 599.011719 C 910.394531 604.292969 934.660156 606.898438 957.1875 605.554688 C 967.109375 604.964844 976.753906 601.75 984.839844 595.976562 C 999.316406 585.613281 1006.507812 570.238281 1005.324219 549.101562 L 990.535156 538.761719 C 989.863281 545.230469 990.085938 551.550781 987.929688 557.898438 C 984.785156 567.164062 977.378906 575.578125 967.738281 577.222656 C 960.253906 578.507812 952.769531 575.644531 945.433594 573.664062 C 931.214844 569.8125 916.144531 569.175781 901.660156 571.804688 C 897.105469 572.632812 892.542969 573.808594 888.503906 576.082031 C 884.679688 578.230469 881.332031 581.363281 877.128906 582.636719 C 871.234375 584.441406 864.722656 582.257812 858.75 583.8125 C 849.765625 586.152344 845.101562 595.742188 840.828125 604 C 833.488281 618.210938 824.039062 631.328125 812.886719 642.796875 C 802.828125 653.136719 791.039062 662.660156 785.734375 676.078125 C 785.066406 677.769531 784.527344 679.589844 784.246094 681.414062 Z M 784.246094 681.414062 " fill-opacity="1" fill-rule="nonzero"/><path fill="#f7b2b2" d="M 833.230469 411.25 C 833.230469 411.25 820.179688 392.769531 807.527344 394.894531 C 801.328125 395.9375 813.417969 406.007812 813.417969 406.007812 C 813.417969 406.007812 778.265625 390.667969 779.730469 406.28125 C 781.195312 421.898438 827.707031 434.464844 827.707031 434.464844 L 844.132812 424.0625 Z M 833.230469 411.25 " fill-opacity="1" fill-rule="nonzero"/><path fill="#46c17e" d="M 939.9375 329.882812 L 939.652344 344.496094 L 938.277344 411.140625 C 938.277344 411.140625 920.859375 466.332031 904.878906 471.410156 C 885.675781 477.527344 820.480469 433.117188 818.953125 431.851562 C 819.9375 432.414062 825.195312 428.523438 826.992188 426.421875 C 830.761719 422.046875 835.261719 412.546875 833.230469 411.25 L 887.359375 432.398438 C 891.714844 434.046875 896.507812 431.246094 897.207031 426.628906 L 906.679688 366.617188 C 910.050781 342.449219 920.066406 328.53125 939.9375 329.882812 Z M 939.9375 329.882812 " fill-opacity="1" fill-rule="nonzero"/><path fill="#3caf6d" d="M 939.652344 344.496094 L 938.277344 411.140625 C 938.277344 411.140625 920.859375 466.332031 904.878906 471.410156 C 885.675781 477.527344 820.480469 433.117188 818.953125 431.851562 C 819.9375 432.414062 825.195312 428.523438 826.992188 426.421875 C 836.710938 429.574219 855.707031 438.71875 864.703125 443.726562 C 867.878906 445.519531 871.125 447.3125 874.730469 447.886719 C 876.71875 448.207031 878.773438 448.125 880.695312 448.78125 C 884.140625 449.933594 886.488281 453.078125 889.433594 455.175781 C 892.410156 457.304688 897.296875 457.9375 899.121094 454.792969 C 900.550781 452.390625 899.246094 449.304688 899.527344 446.507812 C 900.246094 439.902344 908.976562 437.609375 912.398438 431.921875 C 915.019531 427.59375 914.066406 422.078125 914.734375 417.023438 C 916.476562 403.675781 929.320312 394.042969 932.109375 380.855469 C 932.949219 376.910156 932.847656 372.835938 933.117188 368.792969 C 933.449219 364.042969 935.722656 353.753906 939.652344 344.496094 Z M 939.652344 344.496094 " fill-opacity="1" fill-rule="nonzero"/><path fill="#54d391" d="M 938.570312 329.925781 C 976.042969 326.402344 1007.441406 343.632812 1034.132812 376.933594 C 1037.902344 381.640625 1040.273438 387.339844 1041.117188 393.3125 C 1046.695312 432.890625 1046.109375 465.445312 1036.890625 488.164062 C 1034.878906 493.117188 1030.664062 496.832031 1025.511719 498.238281 L 1025.277344 498.300781 C 1018.71875 500.089844 1013.773438 505.421875 1012.488281 512.058594 L 1005.320312 549.101562 C 994.90625 572.199219 897.023438 516.542969 907.4375 493.445312 L 914.058594 438.054688 C 914.277344 436.230469 914.128906 434.375 913.667969 432.597656 C 905.066406 399.285156 907.164062 369.058594 920.785156 342.148438 C 924.25 335.304688 930.933594 330.644531 938.570312 329.925781 Z M 938.570312 329.925781 " fill-opacity="1" fill-rule="nonzero"/><path fill="#dde9fe" d="M 960.535156 530.074219 L 960.085938 536.015625 C 959.929688 537.859375 958.585938 539.621094 956.0625 540.855469 L 894.542969 570.890625 C 889.445312 573.363281 881.53125 572.785156 876.851562 569.601562 L 795.113281 514.136719 C 792.75 512.53125 791.644531 510.585938 791.777344 508.691406 L 792.222656 503.117188 C 792.195312 501.144531 793.5625 499.25 796.246094 497.933594 L 857.789062 467.902344 C 862.863281 465.402344 870.777344 465.980469 875.457031 469.164062 L 957.21875 524.65625 C 959.691406 526.339844 960.769531 528.390625 960.480469 530.335938 C 960.507812 530.257812 960.535156 530.152344 960.535156 530.074219 Z M 960.535156 530.074219 " fill-opacity="1" fill-rule="nonzero"/><path fill="#9db6ce" d="M 960.527344 530.066406 L 960.078125 536.019531 C 959.9375 537.867188 958.59375 539.621094 956.074219 540.847656 L 894.53125 570.890625 C 889.457031 573.363281 881.542969 572.789062 876.855469 569.605469 L 795.109375 514.136719 C 792.742188 512.53125 791.644531 510.570312 791.789062 508.703125 L 792.242188 502.765625 C 792.105469 504.636719 793.203125 506.589844 795.554688 508.183594 L 877.300781 563.65625 C 881.988281 566.835938 889.902344 567.410156 894.980469 564.9375 L 956.519531 534.894531 C 959.046875 533.660156 960.382812 531.90625 960.527344 530.066406 Z M 960.527344 530.066406 " fill-opacity="1" fill-rule="nonzero"/><path fill="#dde9fe" d="M 957.210938 524.644531 C 961.902344 527.828125 961.59375 532.417969 956.523438 534.894531 L 894.976562 564.9375 C 889.902344 567.414062 881.992188 566.835938 877.300781 563.652344 L 795.558594 508.183594 C 790.863281 504.996094 791.164062 500.410156 796.238281 497.933594 L 857.785156 467.890625 C 862.855469 465.414062 870.773438 465.988281 875.46875 469.171875 Z M 957.210938 524.644531 " fill-opacity="1" fill-rule="nonzero"/><path fill="#dde9fe" d="M 889.574219 561.605469 L 884.292969 565.683594 C 883.109375 566.601562 880.953125 566.234375 878.269531 564.421875 L 796.535156 508.953125 C 791.828125 505.773438 787.308594 499.304688 786.386719 494.488281 L 775.449219 436.289062 C 775.03125 434.160156 775.421875 432.710938 776.398438 432.054688 L 781.601562 428.058594 C 782.785156 427.136719 784.941406 427.480469 787.59375 429.320312 L 869.359375 484.785156 C 874.039062 487.96875 878.585938 494.4375 879.480469 499.222656 L 890.441406 557.425781 C 890.8125 559.503906 890.46875 560.921875 889.574219 561.605469 Z M 889.574219 561.605469 " fill-opacity="1" fill-rule="nonzero"/><path fill="#c2d7ef" d="M 889.570312 561.617188 L 884.277344 565.679688 C 885.171875 564.988281 885.523438 563.574219 885.140625 561.507812 L 874.183594 503.296875 C 873.277344 498.5 868.746094 492.035156 864.050781 488.851562 L 782.3125 433.378906 C 779.640625 431.5625 777.484375 431.203125 776.304688 432.113281 L 781.597656 428.050781 C 782.789062 427.136719 784.933594 427.492188 787.605469 429.308594 L 869.347656 484.777344 C 874.039062 487.960938 878.578125 494.429688 879.476562 499.222656 L 890.433594 557.433594 C 890.820312 559.503906 890.472656 560.925781 889.570312 561.617188 Z M 889.570312 561.617188 " fill-opacity="1" fill-rule="nonzero"/><path fill="#285294" d="M 864.050781 488.847656 C 868.742188 492.03125 873.277344 498.5 874.183594 503.296875 L 885.136719 561.503906 C 886.039062 566.304688 882.964844 567.609375 878.273438 564.429688 L 796.53125 508.957031 C 791.835938 505.769531 787.300781 499.300781 786.394531 494.5 L 775.441406 436.292969 C 774.539062 431.492188 777.613281 430.191406 782.308594 433.375 Z M 864.050781 488.847656 " fill-opacity="1" fill-rule="nonzero"/><path fill="#b0c4ff" d="M 827.171875 507.695312 C 831.078125 510.347656 834.53125 508.703125 834.882812 504.019531 C 835.238281 499.335938 832.355469 493.386719 828.453125 490.734375 C 824.546875 488.085938 821.09375 489.734375 820.742188 494.417969 C 820.386719 499.105469 823.269531 505.046875 827.171875 507.695312 Z M 827.171875 507.695312 " fill-opacity="1" fill-rule="nonzero"/><path fill="#f7b2b2" d="M 944.277344 499.589844 C 944.277344 499.589844 912.574219 495.449219 918.632812 502.976562 C 921.394531 506.410156 928.21875 505.640625 928.21875 505.640625 C 928.21875 505.640625 907.972656 515.210938 910.042969 525.152344 C 912.574219 537.300781 954.601562 522.648438 954.601562 522.648438 C 959.253906 515.113281 957.972656 507.597656 952.503906 498.773438 Z M 944.277344 499.589844 " fill-opacity="1" fill-rule="nonzero"/><path fill="#46c17e" d="M 944.277344 499.601562 L 1008.355469 486.894531 C 1012.363281 486.226562 1015.105469 482.515625 1014.605469 478.503906 L 1006.082031 411.292969 C 1005.445312 406.078125 1005.277344 400.792969 1006.046875 395.578125 C 1007.6875 384.140625 1012.164062 376.585938 1020.1875 374.011719 C 1022.960938 373.105469 1025.9375 373.105469 1028.609375 373.976562 C 1030.75 374.613281 1032.6875 375.78125 1034.191406 377.453125 C 1039.640625 383.371094 1042.617188 393.472656 1043.71875 406.777344 C 1043.71875 406.777344 1053.175781 492.949219 1044.253906 511.105469 C 1035.128906 529.628906 954.601562 522.648438 954.601562 522.648438 C 955.371094 518.101562 954.769531 514.425781 952.898438 511.449219 Z M 944.277344 499.601562 " fill-opacity="1" fill-rule="nonzero"/><path fill="#3caf6d" d="M 1044.253906 511.105469 C 1035.128906 529.628906 954.601562 522.648438 954.601562 522.648438 C 955.371094 518.101562 954.769531 514.425781 952.898438 511.449219 C 957.644531 510.878906 969.949219 508.261719 974.695312 508.128906 C 990.203125 507.695312 1006.082031 508.328125 1020.820312 503.414062 C 1023.496094 502.511719 1026.238281 501.339844 1028.074219 499.167969 C 1031.917969 494.585938 1030.25 487.800781 1029.980469 481.847656 C 1029.34375 467.46875 1038.167969 453.359375 1035.128906 439.246094 C 1033.757812 432.761719 1029.980469 427.074219 1027.304688 420.957031 C 1021.625 407.847656 1021.15625 387.886719 1028.609375 373.976562 C 1030.75 374.613281 1032.6875 375.78125 1034.191406 377.453125 C 1039.640625 383.371094 1042.617188 393.472656 1043.71875 406.777344 C 1043.71875 406.777344 1053.175781 492.949219 1044.253906 511.105469 Z M 1044.253906 511.105469 " fill-opacity="1" fill-rule="nonzero"/><path fill="#f7b2b2" d="M 990.386719 319.664062 L 996.148438 342.78125 C 985.347656 354.8125 971.683594 359.875 956.675781 357.414062 C 956.25 357.34375 955.824219 357.253906 955.40625 357.140625 C 944.308594 354.054688 943.605469 344.605469 949.839844 330.914062 L 968.253906 310.839844 L 989.546875 313.730469 Z M 990.386719 319.664062 " fill-opacity="1" fill-rule="nonzero"/><path fill="#353437" d="M 958.25 354.460938 L 948.261719 362.875 L 951.851562 370.09375 C 952.636719 371.675781 954.539062 372.347656 956.140625 371.601562 L 964.722656 367.628906 Z M 958.25 354.460938 " fill-opacity="1" fill-rule="nonzero"/><path fill="#353437" d="M 951.851562 370.09375 C 951.851562 370.09375 933.933594 416.601562 932.8125 452.441406 C 931.96875 479.398438 940.277344 474.851562 944.449219 470.945312 C 945.941406 469.542969 946.667969 467.507812 946.535156 465.464844 C 944.679688 436.667969 951.492188 397.96875 956.140625 371.601562 L 953.785156 366.425781 Z M 951.851562 370.09375 " fill-opacity="1" fill-rule="nonzero"/><path fill="#f1f3f2" d="M 948.011719 329.777344 C 943.535156 342.835938 947.984375 352.613281 958.25 354.460938 L 950.117188 361.894531 C 948 363.832031 944.605469 363.109375 943.453125 360.480469 C 940.191406 353.039062 937.488281 346.710938 937.472656 339.050781 C 937.472656 337.96875 938.003906 336.949219 938.882812 336.320312 Z M 948.011719 329.777344 " fill-opacity="1" fill-rule="nonzero"/><path fill="#f1f3f2" d="M 1001.863281 352.234375 C 997.875 362.207031 982.789062 365.457031 965.097656 367.613281 C 963.601562 367.78125 962.195312 366.871094 961.714844 365.421875 L 958.246094 354.449219 C 977.238281 356.148438 991.605469 351.960938 995.589844 340.535156 L 1000.621094 344.773438 C 1002.683594 346.605469 1002.855469 349.757812 1001.863281 352.234375 Z M 1001.863281 352.234375 " fill-opacity="1" fill-rule="nonzero"/><path fill="#f7b2b2" d="M 991.101562 324.835938 C 991.101562 324.835938 944.242188 348.046875 932.769531 338.246094 C 921.046875 328.230469 936.875 274.550781 936.875 274.550781 L 971.972656 271.039062 L 1001.113281 303.527344 C 1001.113281 303.527344 995.449219 315.507812 994.777344 316.558594 C 994.109375 317.605469 991.101562 324.835938 991.101562 324.835938 Z M 991.101562 324.835938 " fill-opacity="1" fill-rule="nonzero"/><path fill="#eaa7a7" d="M 993.007812 320.585938 C 992.058594 322.777344 991.105469 325.039062 991.105469 325.039062 C 991.105469 325.039062 944.246094 348.265625 932.761719 338.453125 C 921.046875 328.445312 936.878906 274.753906 936.878906 274.753906 L 939.882812 274.460938 C 936.25 288.3125 927.832031 324.703125 937.257812 332.757812 C 947.09375 341.171875 983.019531 325.253906 993.007812 320.585938 Z M 993.007812 320.585938 " fill-opacity="1" fill-rule="nonzero"/><path fill="#353437" d="M 993.378906 325.921875 C 1008.414062 304.773438 1014.828125 286.136719 1007.046875 271.632812 C 1002.609375 254.164062 988.53125 246.632812 966.011719 247.796875 C 954.691406 248.214844 944.453125 253.257812 934.886719 261.164062 C 930.191406 265.039062 931.320312 272.910156 936.875 274.757812 L 954.792969 280.710938 C 958.300781 281.875 960.769531 285.21875 961.050781 289.1875 L 961.074219 289.5 C 961.21875 291.488281 961.917969 293.371094 963.078125 294.898438 C 965.863281 298.570312 967.59375 302.964844 968.191406 308.136719 C 968.390625 309.859375 969.511719 311.28125 971.039062 311.804688 C 972.34375 312.25 973.769531 311.96875 974.894531 311.085938 C 978.027344 308.625 981.519531 307.617188 985.398438 308.160156 C 986.667969 308.335938 987.910156 308.742188 988.960938 309.503906 C 991.855469 311.59375 992.054688 315.011719 989.792969 319.648438 C 989.371094 320.511719 989.410156 321.542969 989.820312 322.394531 L 991.460938 325.78125 C 991.839844 326.5625 992.871094 326.636719 993.378906 325.921875 Z M 993.378906 325.921875 " fill-opacity="1" fill-rule="nonzero"/><path fill="#29282b" d="M 993.382812 325.921875 C 992.871094 326.644531 991.851562 326.566406 991.449219 325.789062 L 990.808594 324.445312 C 1001.910156 306.578125 1005.90625 290.800781 999.121094 278.140625 C 994.695312 260.675781 980.617188 253.136719 958.085938 254.316406 C 949.238281 254.636719 941.03125 257.777344 933.308594 262.953125 C 933.710938 262.308594 934.246094 261.695312 934.890625 261.15625 C 944.464844 253.269531 954.683594 248.226562 966 247.796875 C 988.527344 246.640625 1002.609375 254.15625 1007.058594 271.621094 C 1014.835938 286.132812 1008.425781 304.78125 993.382812 325.921875 Z M 993.382812 325.921875 " fill-opacity="1" fill-rule="nonzero"/></svg>