<svg xmlns="http://www.w3.org/2000/svg" xmlns:xlink="http://www.w3.org/1999/xlink" width="1920" zoomAndPan="magnify" viewBox="0 0 1440 809.999993" height="1080" preserveAspectRatio="xMidYMid meet" version="1.0"><defs><clipPath id="4b5651fb53"><path d="M 35 0.613281 L 397 0.613281 L 397 268 L 35 268 Z M 35 0.613281 " clip-rule="nonzero"/></clipPath><clipPath id="5884318085"><path d="M 0.882812 102 L 436 102 L 436 370 L 0.882812 370 Z M 0.882812 102 " clip-rule="nonzero"/></clipPath><clipPath id="6743a6134b"><path d="M 283 221 L 458.722656 221 L 458.722656 397 L 283 397 Z M 283 221 " clip-rule="nonzero"/></clipPath><clipPath id="e740e6d937"><path d="M 484 222.554688 L 581 222.554688 L 581 317 L 484 317 Z M 484 222.554688 " clip-rule="nonzero"/></clipPath><clipPath id="a65b19d599"><path d="M 177.648438 516 L 658.902344 516 L 658.902344 571.386719 L 177.648438 571.386719 Z M 177.648438 516 " clip-rule="nonzero"/></clipPath><clipPath id="4fb7b1ef95"><rect x="0" width="660" y="0" height="572"/></clipPath></defs><rect x="-144" width="1728" fill="#ffffff" y="-80.999999" height="971.999992" fill-opacity="1"/><rect x="-144" width="1728" fill="#ffffff" y="-80.999999" height="971.999992" fill-opacity="1"/><g transform="matrix(1, 0, 0, 1, 390, 119)"><g clip-path="url(#4fb7b1ef95)"><g clip-path="url(#4b5651fb53)"><path fill="#fff4e9" d="M 35.957031 0.535156 L 396.546875 0.535156 L 396.546875 267.410156 L 35.957031 267.410156 Z M 35.957031 0.535156 " fill-opacity="1" fill-rule="nonzero"/></g><g clip-path="url(#5884318085)"><path fill="#ffb347" d="M 203.015625 164.875 L 145.578125 102.71875 L 18.574219 102.71875 C 8.757812 102.71875 0.800781 110.671875 0.800781 120.488281 L 0.800781 351.488281 C 0.800781 361.300781 8.757812 369.253906 18.574219 369.253906 L 417.402344 369.253906 C 427.222656 369.253906 435.179688 361.300781 435.179688 351.488281 L 435.179688 182.644531 C 435.179688 172.828125 427.222656 164.875 417.402344 164.875 Z M 203.015625 164.875 " fill-opacity="1" fill-rule="nonzero"/></g><path fill="#999999" d="M 337.195312 60.183594 L 180.390625 60.183594 C 176.179688 60.183594 172.757812 56.773438 172.757812 52.554688 C 172.757812 48.339844 176.179688 44.925781 180.390625 44.925781 L 337.195312 44.925781 C 341.40625 44.925781 344.824219 48.339844 344.824219 52.554688 C 344.824219 56.773438 341.40625 60.183594 337.195312 60.183594 Z M 337.195312 60.183594 " fill-opacity="1" fill-rule="nonzero"/><path fill="#999999" d="M 337.195312 113.582031 L 224.027344 113.582031 C 219.816406 113.582031 216.398438 110.167969 216.398438 105.953125 C 216.398438 101.738281 219.816406 98.324219 224.027344 98.324219 L 337.195312 98.324219 C 341.40625 98.324219 344.824219 101.738281 344.824219 105.953125 C 344.824219 110.167969 341.40625 113.582031 337.195312 113.582031 Z M 337.195312 113.582031 " fill-opacity="1" fill-rule="nonzero"/><g clip-path="url(#6743a6134b)"><path fill="#4fc95b" d="M 458.800781 309.175781 C 458.800781 310.605469 458.765625 312.039062 458.695312 313.46875 C 458.625 314.898438 458.523438 316.324219 458.382812 317.75 C 458.242188 319.175781 458.066406 320.59375 457.855469 322.011719 C 457.644531 323.429688 457.402344 324.839844 457.121094 326.242188 C 456.839844 327.644531 456.527344 329.042969 456.179688 330.429688 C 455.832031 331.820312 455.449219 333.199219 455.035156 334.570312 C 454.617188 335.941406 454.167969 337.300781 453.6875 338.648438 C 453.203125 339.996094 452.691406 341.332031 452.140625 342.652344 C 451.59375 343.976562 451.011719 345.285156 450.402344 346.578125 C 449.789062 347.871094 449.144531 349.152344 448.46875 350.414062 C 447.792969 351.675781 447.089844 352.921875 446.351562 354.148438 C 445.617188 355.378906 444.851562 356.585938 444.054688 357.777344 C 443.257812 358.96875 442.433594 360.136719 441.582031 361.289062 C 440.726562 362.4375 439.847656 363.566406 438.9375 364.671875 C 438.03125 365.78125 437.09375 366.863281 436.132812 367.925781 C 435.171875 368.984375 434.183594 370.019531 433.171875 371.035156 C 432.160156 372.046875 431.121094 373.03125 430.0625 373.996094 C 429 374.957031 427.914062 375.890625 426.808594 376.800781 C 425.703125 377.707031 424.574219 378.589844 423.421875 379.441406 C 422.273438 380.292969 421.101562 381.117188 419.910156 381.914062 C 418.71875 382.707031 417.511719 383.472656 416.28125 384.210938 C 415.054688 384.945312 413.808594 385.652344 412.546875 386.328125 C 411.28125 387 410.003906 387.644531 408.707031 388.257812 C 407.414062 388.871094 406.105469 389.449219 404.78125 389.996094 C 403.457031 390.546875 402.125 391.058594 400.773438 391.542969 C 399.425781 392.023438 398.066406 392.472656 396.695312 392.890625 C 395.324219 393.304688 393.945312 393.6875 392.558594 394.035156 C 391.167969 394.382812 389.769531 394.695312 388.367188 394.976562 C 386.960938 395.253906 385.550781 395.5 384.132812 395.710938 C 382.71875 395.917969 381.296875 396.09375 379.871094 396.234375 C 378.445312 396.375 377.019531 396.480469 375.589844 396.550781 C 374.15625 396.621094 372.726562 396.65625 371.292969 396.65625 C 369.863281 396.65625 368.429688 396.621094 367 396.550781 C 365.570312 396.480469 364.140625 396.375 362.71875 396.234375 C 361.292969 396.09375 359.871094 395.917969 358.453125 395.710938 C 357.039062 395.5 355.625 395.253906 354.222656 394.976562 C 352.816406 394.695312 351.421875 394.382812 350.03125 394.035156 C 348.640625 393.6875 347.261719 393.304688 345.890625 392.890625 C 344.519531 392.472656 343.160156 392.023438 341.8125 391.542969 C 340.464844 391.058594 339.128906 390.546875 337.804688 389.996094 C 336.484375 389.449219 335.175781 388.871094 333.878906 388.257812 C 332.585938 387.644531 331.304688 387 330.042969 386.328125 C 328.78125 385.652344 327.535156 384.945312 326.304688 384.210938 C 325.078125 383.472656 323.867188 382.707031 322.675781 381.914062 C 321.484375 381.117188 320.316406 380.292969 319.164062 379.441406 C 318.015625 378.589844 316.886719 377.707031 315.78125 376.800781 C 314.671875 375.890625 313.589844 374.957031 312.527344 373.996094 C 311.464844 373.03125 310.429688 372.046875 309.417969 371.035156 C 308.402344 370.019531 307.417969 368.984375 306.453125 367.925781 C 305.492188 366.863281 304.558594 365.78125 303.648438 364.671875 C 302.742188 363.566406 301.859375 362.4375 301.007812 361.289062 C 300.152344 360.136719 299.328125 358.96875 298.535156 357.777344 C 297.738281 356.585938 296.972656 355.378906 296.234375 354.148438 C 295.5 352.921875 294.792969 351.675781 294.117188 350.414062 C 293.445312 349.152344 292.800781 347.871094 292.1875 346.578125 C 291.574219 345.285156 290.996094 343.976562 290.445312 342.652344 C 289.898438 341.332031 289.382812 339.996094 288.902344 338.648438 C 288.417969 337.300781 287.96875 335.941406 287.554688 334.570312 C 287.136719 333.199219 286.757812 331.820312 286.40625 330.429688 C 286.058594 329.042969 285.746094 327.644531 285.46875 326.242188 C 285.1875 324.839844 284.941406 323.429688 284.734375 322.011719 C 284.523438 320.59375 284.347656 319.175781 284.207031 317.75 C 284.066406 316.324219 283.960938 314.898438 283.890625 313.46875 C 283.820312 312.039062 283.785156 310.605469 283.785156 309.175781 C 283.785156 307.742188 283.820312 306.3125 283.890625 304.882812 C 283.960938 303.453125 284.066406 302.027344 284.207031 300.601562 C 284.347656 299.175781 284.523438 297.753906 284.734375 296.339844 C 284.941406 294.921875 285.1875 293.511719 285.46875 292.109375 C 285.746094 290.703125 286.058594 289.308594 286.40625 287.917969 C 286.757812 286.53125 287.136719 285.152344 287.554688 283.78125 C 287.96875 282.410156 288.417969 281.050781 288.902344 279.703125 C 289.382812 278.355469 289.898438 277.019531 290.445312 275.699219 C 290.996094 274.375 291.574219 273.066406 292.1875 271.773438 C 292.800781 270.476562 293.445312 269.199219 294.117188 267.9375 C 294.792969 266.675781 295.5 265.429688 296.234375 264.203125 C 296.972656 262.972656 297.738281 261.765625 298.535156 260.574219 C 299.328125 259.382812 300.152344 258.214844 301.007812 257.0625 C 301.859375 255.914062 302.742188 254.785156 303.648438 253.679688 C 304.558594 252.570312 305.492188 251.488281 306.453125 250.425781 C 307.417969 249.367188 308.402344 248.328125 309.417969 247.316406 C 310.429688 246.304688 311.464844 245.316406 312.527344 244.355469 C 313.589844 243.394531 314.671875 242.460938 315.78125 241.550781 C 316.886719 240.644531 318.015625 239.761719 319.164062 238.910156 C 320.316406 238.058594 321.484375 237.234375 322.675781 236.4375 C 323.867188 235.640625 325.078125 234.875 326.304688 234.140625 C 327.535156 233.40625 328.78125 232.699219 330.042969 232.023438 C 331.304688 231.347656 332.585938 230.707031 333.878906 230.09375 C 335.175781 229.480469 336.484375 228.902344 337.804688 228.355469 C 339.128906 227.804688 340.464844 227.289062 341.8125 226.808594 C 343.160156 226.324219 344.519531 225.878906 345.890625 225.460938 C 347.261719 225.046875 348.640625 224.664062 350.03125 224.316406 C 351.421875 223.96875 352.816406 223.65625 354.222656 223.375 C 355.625 223.097656 357.039062 222.851562 358.453125 222.640625 C 359.871094 222.429688 361.292969 222.257812 362.714844 222.117188 C 364.140625 221.976562 365.570312 221.871094 367 221.800781 C 368.429688 221.730469 369.863281 221.695312 371.292969 221.695312 C 372.726562 221.695312 374.15625 221.730469 375.589844 221.800781 C 377.019531 221.871094 378.445312 221.976562 379.871094 222.117188 C 381.296875 222.257812 382.71875 222.429688 384.132812 222.640625 C 385.550781 222.851562 386.960938 223.097656 388.367188 223.375 C 389.769531 223.65625 391.167969 223.96875 392.558594 224.316406 C 393.945312 224.664062 395.324219 225.046875 396.695312 225.460938 C 398.066406 225.878906 399.425781 226.324219 400.773438 226.808594 C 402.125 227.289062 403.457031 227.804688 404.78125 228.355469 C 406.105469 228.902344 407.414062 229.480469 408.707031 230.09375 C 410.003906 230.707031 411.28125 231.347656 412.546875 232.023438 C 413.808594 232.699219 415.054688 233.40625 416.28125 234.140625 C 417.511719 234.875 418.71875 235.640625 419.910156 236.4375 C 421.101562 237.234375 422.273438 238.058594 423.421875 238.910156 C 424.574219 239.761719 425.703125 240.644531 426.808594 241.550781 C 427.914062 242.460938 429 243.394531 430.0625 244.355469 C 431.121094 245.316406 432.160156 246.304688 433.171875 247.316406 C 434.183594 248.328125 435.171875 249.367188 436.132812 250.425781 C 437.09375 251.488281 438.03125 252.570312 438.9375 253.679688 C 439.847656 254.785156 440.726562 255.914062 441.582031 257.0625 C 442.433594 258.214844 443.257812 259.382812 444.054688 260.574219 C 444.851562 261.765625 445.617188 262.972656 446.351562 264.203125 C 447.089844 265.429688 447.792969 266.675781 448.46875 267.9375 C 449.144531 269.199219 449.789062 270.476562 450.402344 271.773438 C 451.011719 273.066406 451.59375 274.375 452.140625 275.699219 C 452.691406 277.019531 453.203125 278.355469 453.6875 279.703125 C 454.167969 281.050781 454.617188 282.410156 455.035156 283.78125 C 455.449219 285.152344 455.832031 286.53125 456.179688 287.917969 C 456.527344 289.308594 456.839844 290.703125 457.121094 292.109375 C 457.402344 293.511719 457.644531 294.921875 457.855469 296.339844 C 458.066406 297.753906 458.242188 299.175781 458.382812 300.601562 C 458.523438 302.027344 458.628906 303.453125 458.695312 304.882812 C 458.765625 306.3125 458.800781 307.742188 458.800781 309.175781 Z M 458.800781 309.175781 " fill-opacity="1" fill-rule="nonzero"/></g><path fill="#fff4e9" d="M 410.125 301.546875 L 378.917969 301.546875 L 378.917969 270.359375 C 378.917969 266.140625 375.5 262.730469 371.289062 262.730469 C 367.078125 262.730469 363.660156 266.140625 363.660156 270.359375 L 363.660156 301.546875 L 332.460938 301.546875 C 328.246094 301.546875 324.828125 304.960938 324.828125 309.175781 C 324.828125 313.390625 328.246094 316.804688 332.460938 316.804688 L 363.660156 316.804688 L 363.660156 347.992188 C 363.660156 352.210938 367.078125 355.621094 371.289062 355.621094 C 375.5 355.621094 378.917969 352.210938 378.917969 347.992188 L 378.917969 316.804688 L 410.125 316.804688 C 414.335938 316.804688 417.753906 313.390625 417.753906 309.175781 C 417.753906 304.960938 414.335938 301.546875 410.125 301.546875 Z M 410.125 301.546875 " fill-opacity="1" fill-rule="nonzero"/><g clip-path="url(#e740e6d937)"><path fill="#1e1e1e" d="M 532.734375 223.210938 C 530.964844 223.449219 528.449219 224.03125 527.140625 224.503906 C 524.753906 225.371094 523.394531 225.652344 517.015625 226.609375 C 512.441406 227.292969 508.964844 228.605469 505.335938 231.019531 C 502.601562 232.839844 498.625 236.574219 497.628906 238.257812 C 497.40625 238.632812 496.175781 239.503906 494.894531 240.195312 C 488.816406 243.46875 485.394531 248.761719 484.34375 256.523438 C 483.683594 261.390625 486.398438 268.765625 490.828125 274.136719 C 493.386719 277.242188 494.554688 277.652344 494.722656 275.507812 C 494.851562 273.820312 496.792969 271.132812 498.445312 270.363281 C 500.398438 269.453125 507.894531 267.203125 511.425781 266.46875 C 513.082031 266.121094 516.179688 265.707031 518.308594 265.546875 C 522.6875 265.214844 531.777344 265.976562 533.867188 266.847656 C 534.773438 267.226562 535.953125 268.5 537.414062 270.664062 C 538.621094 272.449219 541.367188 275.710938 543.519531 277.910156 C 545.675781 280.113281 547.8125 282.640625 548.265625 283.535156 C 548.722656 284.425781 549.386719 287.136719 549.742188 289.558594 C 550.742188 296.351562 550.878906 296.597656 554.546875 298.335938 C 557.222656 299.601562 557.875 300.582031 561.605469 308.9375 C 564.078125 314.480469 565.589844 316.554688 567.160156 316.5625 C 568.082031 316.5625 571.175781 313.265625 572.226562 311.15625 C 573.21875 309.171875 574.015625 306.246094 575.308594 299.847656 C 575.804688 297.398438 576.957031 293.421875 577.875 291.007812 C 580.097656 285.167969 580.722656 280.796875 580.097656 275.496094 C 579.835938 273.261719 579.617188 269.820312 579.613281 267.851562 C 579.609375 263.039062 578.886719 255.148438 578.109375 251.394531 C 577.230469 247.164062 575.164062 243.164062 572.519531 240.574219 C 570.355469 238.457031 565.515625 235.597656 563.160156 235.042969 C 562.511719 234.886719 561.976562 234.578125 561.976562 234.355469 C 561.976562 234.132812 560.785156 232.671875 559.328125 231.113281 C 556.261719 227.835938 552.285156 225.34375 547.996094 224.015625 C 544.449219 222.914062 537.640625 222.554688 532.734375 223.210938 Z M 532.734375 223.210938 " fill-opacity="1" fill-rule="evenodd"/></g><path fill="#ffab70" d="M 528.632812 263.953125 C 524.953125 265.449219 524.515625 265.527344 519.8125 265.523438 C 515.835938 265.523438 514.386719 265.34375 512.414062 264.609375 L 509.960938 263.699219 L 507.894531 265.015625 C 504.269531 267.332031 501.386719 268.433594 498.214844 268.722656 L 495.179688 269 L 494.378906 272.011719 C 492.824219 277.851562 492.855469 280.332031 494.566406 287.515625 C 495.410156 291.0625 496.5 296.871094 496.980469 300.421875 C 498.371094 310.636719 502.105469 323.980469 504.929688 328.800781 C 506.621094 331.6875 510.160156 335.332031 512.667969 336.765625 C 515.230469 338.234375 519.488281 339.359375 522.503906 339.371094 L 524.546875 339.375 L 524.539062 341.207031 C 524.523438 343.789062 523.230469 346.375 521.371094 347.523438 C 519.585938 348.628906 519.636719 348.441406 520.429688 351.0625 C 522.332031 357.328125 526.386719 360.859375 532.707031 361.757812 C 537.710938 362.46875 542.589844 361.488281 547.707031 358.742188 C 552.914062 355.953125 566.074219 345.148438 568.03125 342.058594 C 569.804688 339.261719 569.878906 338.785156 568.851562 336.773438 C 568.296875 335.6875 567.785156 333.527344 567.546875 331.261719 C 566.996094 326.015625 567.035156 306.574219 567.597656 305.089844 C 567.847656 304.429688 569.113281 302.777344 570.410156 301.414062 C 573.628906 298.042969 575.054688 294.847656 575.082031 290.953125 C 575.097656 288.402344 574.914062 287.621094 573.894531 285.886719 C 572.246094 283.078125 569.875 281.574219 566.78125 281.371094 C 563.773438 281.175781 562.070312 282.019531 559.621094 284.90625 L 557.890625 286.949219 L 557.859375 291.269531 C 557.824219 296.222656 557.492188 296.761719 554.449219 296.761719 C 551.265625 296.761719 551.148438 296.507812 550.6875 288.542969 C 550.144531 279.199219 549.875 278.679688 544.003906 275.792969 L 539.820312 273.734375 L 539.699219 268.683594 C 539.558594 262.832031 539.621094 262.917969 535.257812 262.585938 C 532.820312 262.402344 532.066406 262.558594 528.632812 263.953125 Z M 528.632812 263.953125 " fill-opacity="1" fill-rule="evenodd"/><path fill="#ffab70" d="M 464.96875 447.527344 C 464.535156 448.84375 463.875 457.550781 463.441406 467.648438 C 463.179688 473.6875 462.886719 479.03125 462.789062 479.53125 C 462.527344 480.828125 457.910156 482.652344 446.269531 486.0625 L 436.558594 488.90625 L 428.816406 489.1875 C 422.78125 489.40625 420.453125 489.664062 418.273438 490.355469 C 416.3125 490.976562 413.8125 491.304688 409.882812 491.464844 C 400.691406 491.832031 398.550781 492.953125 393.808594 499.882812 C 390.730469 504.378906 390.386719 506.140625 392.300781 507.648438 C 392.925781 508.140625 393.894531 508.539062 394.453125 508.539062 C 395.332031 508.539062 395.472656 508.75 395.472656 510.066406 C 395.472656 513.425781 399 514.835938 401.359375 512.417969 C 402.527344 511.226562 402.710938 511.171875 403.984375 511.652344 C 405.65625 512.28125 409.09375 511.535156 410.101562 510.316406 C 410.453125 509.886719 412.242188 507.578125 414.066406 505.191406 C 416.378906 502.167969 418.015625 500.476562 419.445312 499.632812 L 421.5 498.425781 L 452.132812 498.425781 C 472.015625 498.425781 482.898438 498.273438 483.144531 497.996094 C 483.453125 497.644531 483.042969 476.90625 482.292969 454.734375 L 482.167969 451.078125 L 480.699219 451.195312 C 477.21875 451.476562 467.753906 449.21875 466.558594 447.824219 C 465.730469 446.859375 465.21875 446.761719 464.96875 447.527344 Z M 464.96875 447.527344 " fill-opacity="1" fill-rule="evenodd"/><path fill="#5a93ff" d="M 564.433594 342.601562 C 556.097656 351.335938 549.964844 355.761719 542.996094 358.066406 C 536.011719 360.378906 528.839844 359.46875 525.28125 355.824219 C 523.824219 354.332031 521.964844 350.320312 521.964844 348.667969 C 521.964844 348.320312 521.761719 347.910156 521.515625 347.757812 C 521.046875 347.46875 511.644531 351.457031 504.96875 354.777344 C 500.011719 357.242188 482.515625 366.785156 481.046875 367.824219 C 478.25 369.800781 470.683594 395.269531 467.121094 414.703125 C 465.222656 425.070312 462.503906 444.089844 462.671875 445.835938 C 462.78125 446.941406 463.117188 447.347656 464.453125 447.972656 C 466.804688 449.078125 473.375 450.738281 477.648438 451.304688 C 479.660156 451.574219 481.363281 451.851562 481.429688 451.917969 C 481.5 451.988281 481.746094 459.382812 481.976562 468.347656 C 482.203125 477.316406 482.601562 487.460938 482.855469 490.890625 C 483.109375 494.324219 483.542969 504.785156 483.816406 514.136719 L 484.316406 531.136719 L 485.851562 531.636719 C 490.671875 533.214844 504.054688 534.660156 523.472656 535.699219 C 534 536.261719 570.738281 535.988281 583.492188 535.253906 C 608.652344 533.800781 621.09375 531.71875 624.035156 528.472656 C 624.6875 527.746094 624.726562 527.21875 624.363281 524.011719 C 624.140625 522.015625 623.660156 514.179688 623.300781 506.605469 C 622.941406 499.027344 622.449219 489.828125 622.210938 486.15625 C 621.511719 475.574219 620.925781 463.4375 620.921875 459.613281 L 620.921875 456.09375 L 623.828125 455.816406 C 631.304688 455.101562 637.527344 453.433594 639.703125 451.558594 L 640.804688 450.613281 L 640.324219 438.148438 C 639.148438 407.628906 638.273438 398.839844 634.902344 383.480469 C 633.304688 376.214844 631.582031 371.351562 629.199219 367.425781 C 627.824219 365.144531 626.949219 364.335938 623.113281 361.761719 C 615.707031 356.800781 608.394531 353.425781 578.113281 341.019531 C 574.089844 339.371094 570.613281 337.84375 570.390625 337.625 C 570.164062 337.402344 569.875 337.238281 569.746094 337.253906 C 569.613281 337.273438 567.226562 339.675781 564.433594 342.601562 Z M 564.433594 342.601562 " fill-opacity="1" fill-rule="evenodd"/><g clip-path="url(#a65b19d599)"><path fill="#ffce20" d="M 182.351562 546.867188 C 179.65625 547.527344 177.765625 549.945312 177.765625 552.71875 L 177.765625 565.359375 C 177.765625 568.6875 180.460938 571.386719 183.789062 571.386719 L 654.914062 571.386719 C 657.050781 571.386719 658.785156 569.652344 658.785156 567.511719 L 658.785156 525.71875 C 658.785156 523.601562 657.085938 521.875 654.96875 521.84375 L 304.996094 516.71875 Z M 182.351562 546.867188 " fill-opacity="1" fill-rule="evenodd"/></g><path fill="#1e1e1e" d="M 657.925781 547.269531 C 657.929688 547.746094 657.550781 548.136719 657.074219 548.140625 L 179.925781 553.089844 C 179.449219 553.097656 179.0625 552.714844 179.054688 552.238281 C 179.050781 551.765625 179.433594 551.375 179.90625 551.371094 L 657.054688 546.417969 C 657.527344 546.414062 657.921875 546.796875 657.925781 547.269531 Z M 657.925781 547.269531 " fill-opacity="1" fill-rule="evenodd"/><path fill="#ffab70" d="M 630.171875 453.6875 C 626.078125 454.828125 615.855469 456.027344 610.277344 456.019531 C 605.570312 456.011719 593.574219 454.765625 587.265625 453.625 C 585.792969 453.359375 585.625 453.433594 585.207031 454.53125 C 583.882812 458.015625 579.632812 484.636719 579.613281 489.574219 C 579.609375 490.417969 579.445312 491.359375 579.25 491.667969 C 578.996094 492.070312 576.601562 492.347656 570.757812 492.644531 C 560.15625 493.179688 551.90625 493.972656 535.109375 496.070312 C 516.027344 498.449219 508.652344 498.890625 498.824219 498.246094 C 494.5 497.960938 489.851562 497.546875 488.5 497.328125 C 487.148438 497.105469 485.265625 496.921875 484.320312 496.914062 C 483.371094 496.910156 481.339844 496.511719 479.800781 496.03125 C 478.261719 495.546875 473.753906 494.285156 469.78125 493.226562 C 465.808594 492.167969 461.152344 490.742188 459.429688 490.058594 C 451.160156 486.773438 448.535156 487.300781 433.632812 495.238281 C 416.308594 504.46875 413.871094 506.136719 413.304688 509.160156 C 413.027344 510.636719 413.121094 510.960938 414.078125 511.78125 C 414.757812 512.371094 415.28125 513.394531 415.46875 514.519531 C 415.910156 517.113281 417.214844 517.878906 420.144531 517.273438 C 421.441406 517.003906 422.421875 516.976562 422.507812 517.203125 C 423.5625 520.019531 427.601562 519.210938 434.570312 514.792969 C 439.308594 511.785156 440.96875 511.164062 444.304688 511.144531 C 446.8125 511.132812 447.003906 511.214844 451.066406 514.085938 C 458.355469 519.242188 464.808594 521.855469 470.335938 521.882812 C 471.636719 521.890625 475.816406 521.664062 479.621094 521.378906 C 488.613281 520.710938 493.476562 521.183594 509.011719 524.238281 C 538.339844 530.003906 549.4375 531.140625 576.390625 531.125 C 598.785156 531.113281 603.316406 530.648438 607.195312 527.964844 C 611.96875 524.65625 619.816406 508.253906 622.867188 495.195312 C 623.503906 492.472656 624.769531 487.730469 625.683594 484.652344 C 628.109375 476.460938 633.921875 455.574219 634.15625 454.199219 C 634.328125 453.175781 634.21875 453.019531 633.339844 453.050781 C 632.78125 453.074219 631.355469 453.359375 630.171875 453.6875 Z M 630.171875 453.6875 " fill-opacity="1" fill-rule="evenodd"/><path fill="#a0dbff" d="M 238.203125 403.105469 C 235.46875 403.90625 233.703125 406.683594 233.609375 410.320312 C 233.582031 411.429688 238.628906 438.0625 244.824219 469.507812 C 254.527344 518.757812 256.261719 527.023438 257.347656 529.175781 C 258.632812 531.722656 260.777344 533.9375 261.957031 533.9375 C 263.285156 533.9375 381.167969 545.554688 384.632812 546.027344 C 387.621094 546.433594 388.828125 546.398438 391.949219 545.8125 C 395.554688 545.132812 482.757812 534.300781 490.894531 533.519531 C 497.4375 532.894531 499.773438 531.203125 500.308594 526.707031 C 500.484375 525.207031 500.382812 524.457031 499.933594 524.011719 C 499.445312 523.519531 488.09375 522.640625 445.351562 519.785156 C 415.667969 517.800781 391.257812 516.058594 391.097656 515.910156 C 390.765625 515.597656 375.472656 427.410156 375.046875 423.34375 C 374.605469 419.085938 372.925781 416.507812 369.871094 415.390625 C 368.527344 414.898438 365.480469 414.597656 302.144531 408.664062 C 269.351562 405.59375 241.839844 403.003906 241.011719 402.902344 C 240.183594 402.804688 238.917969 402.898438 238.203125 403.105469 Z M 238.203125 403.105469 " fill-opacity="1" fill-rule="evenodd"/><path fill="#1e1e1e" d="M 445.351562 519.785156 C 488.09375 522.640625 499.445312 523.519531 499.933594 524.011719 L 393.964844 536.949219 L 391.097656 515.910156 C 391.257812 516.058594 415.667969 517.800781 445.351562 519.785156 Z M 445.351562 519.785156 " fill-opacity="1" fill-rule="nonzero"/><path fill="#1e1e1e" d="M 557.15625 302.59375 C 557.109375 302.820312 557.058594 306.007812 557.050781 309.675781 C 557.03125 316.035156 556.976562 316.464844 555.847656 318.878906 C 555.195312 320.269531 553.792969 322.628906 552.726562 324.121094 C 550.6875 326.980469 550.40625 327.753906 551.402344 327.753906 C 553.058594 327.753906 557.980469 319.199219 558.519531 315.390625 C 558.949219 312.328125 558.394531 303.335938 557.730469 302.671875 C 557.460938 302.398438 557.207031 302.367188 557.15625 302.59375 Z M 546.273438 331.035156 C 542.023438 334.792969 535.457031 337.671875 529.09375 338.5625 C 524.53125 339.199219 524.328125 339.460938 524.6875 344.140625 C 525.097656 349.453125 526.925781 352.652344 529.996094 353.421875 C 532.886719 354.148438 537.039062 351.398438 540.402344 346.53125 C 542.851562 342.988281 549.070312 331.230469 549.070312 330.144531 C 549.070312 329.089844 548.136719 329.386719 546.273438 331.035156 Z M 573.671875 342.710938 C 569.105469 348.867188 560.417969 356.308594 553.242188 360.21875 C 543.109375 365.738281 532.648438 366.726562 525.0625 362.878906 C 520.914062 360.773438 518.09375 356.050781 518.09375 351.199219 C 518.09375 349.394531 517.941406 348.847656 517.449219 348.847656 C 516.9375 348.847656 516.800781 349.46875 516.800781 351.851562 C 516.800781 358.558594 520.746094 363.558594 527.769531 365.753906 C 531.894531 367.039062 539.175781 367.011719 544.125 365.6875 C 553.085938 363.285156 564.4375 355.800781 571.9375 347.339844 C 576.035156 342.722656 577.679688 339.808594 576.191406 339.808594 C 575.992188 339.808594 574.859375 341.113281 573.671875 342.710938 Z M 590.660156 380.566406 C 590.542969 380.996094 590.324219 382.699219 590.175781 384.359375 C 590.027344 386.015625 589.53125 390.277344 589.078125 393.828125 C 588.621094 397.378906 587.765625 405.125 587.171875 411.046875 C 586.578125 416.964844 585.703125 425.488281 585.226562 429.984375 C 584.753906 434.484375 584.257812 440.777344 584.125 443.972656 C 583.996094 447.171875 583.808594 450.277344 583.71875 450.882812 C 583.507812 452.230469 584.136719 453.402344 584.738281 452.796875 C 584.972656 452.558594 585.296875 450.382812 585.464844 447.957031 C 585.652344 445.199219 585.945312 443.542969 586.242188 443.546875 C 586.503906 443.546875 588.652344 443.917969 591.019531 444.371094 C 603.496094 446.769531 620.554688 446.761719 631.417969 444.359375 C 635.785156 443.394531 639.027344 442.113281 640.09375 440.929688 C 640.75 440.207031 640.757812 440.089844 640.164062 439.863281 C 639.792969 439.71875 639.035156 439.902344 638.480469 440.265625 C 632.050781 444.484375 608.648438 445.9375 592.6875 443.113281 C 585.644531 441.863281 585.890625 442.015625 586.019531 438.984375 C 586.078125 437.585938 586.402344 433.828125 586.742188 430.628906 C 587.082031 427.433594 587.847656 419.976562 588.441406 414.058594 C 589.035156 408.140625 590.003906 399.421875 590.589844 394.6875 C 591.863281 384.433594 592.085938 380.21875 591.378906 379.96875 C 591.105469 379.871094 590.78125 380.140625 590.660156 380.566406 Z M 483.675781 397.808594 C 483.675781 398.222656 483.28125 405.050781 482.800781 412.984375 C 482.324219 420.914062 481.789062 430.5 481.617188 434.289062 L 481.308594 441.175781 L 478.726562 441.050781 C 475.78125 440.90625 470.976562 439.695312 466.96875 438.09375 C 464.105469 436.945312 462.722656 437.15625 464.089844 438.527344 C 464.996094 439.429688 472.28125 441.71875 476.144531 442.308594 C 481.550781 443.140625 481.089844 442.851562 481.09375 445.382812 C 481.101562 449.789062 481.613281 453.445312 482.230469 453.445312 C 482.691406 453.445312 482.8125 452.203125 482.8125 447.4375 C 482.8125 441.457031 483.609375 424.558594 484.71875 406.957031 C 485.039062 401.867188 485.214844 397.558594 485.105469 397.378906 C 484.730469 396.75 483.671875 397.066406 483.675781 397.808594 Z M 461.914062 479.75 C 461.367188 480.636719 462.78125 480.980469 467 480.984375 C 470.253906 480.992188 471.195312 480.859375 471.195312 480.40625 C 471.195312 479.390625 462.515625 478.777344 461.914062 479.75 Z M 443.898438 488.789062 C 439.5625 490.28125 435.34375 493.316406 425.804688 501.8125 C 419.585938 507.347656 414.832031 511.949219 414.832031 512.429688 C 414.832031 513.554688 416.554688 512.53125 419.75 509.507812 C 429.664062 500.140625 438 493.3125 441.992188 491.296875 C 447.453125 488.539062 451.699219 488.636719 461.457031 491.734375 C 467.539062 493.667969 472.039062 494.855469 477.769531 496.042969 C 479.953125 496.496094 482.957031 497.15625 484.453125 497.507812 C 486.835938 498.066406 487.195312 498.070312 487.410156 497.511719 C 487.542969 497.167969 487.578125 496.8125 487.492188 496.726562 C 487.402344 496.640625 483.28125 495.660156 478.332031 494.550781 C 473.382812 493.441406 466.996094 491.789062 464.132812 490.882812 C 461.273438 489.972656 457.742188 488.925781 456.289062 488.554688 C 452.53125 487.59375 447.066406 487.699219 443.898438 488.789062 Z M 410.261719 498.101562 C 404.152344 506.554688 402.191406 509.648438 402.566406 510.253906 C 403.070312 511.074219 403.523438 510.699219 405.269531 508.003906 C 406.226562 506.523438 409.15625 502.359375 411.78125 498.75 C 414.40625 495.140625 416.554688 491.898438 416.554688 491.542969 C 416.554688 489.894531 415.09375 491.417969 410.261719 498.101562 Z M 405.652344 492.636719 C 402.855469 494.839844 394.097656 507.765625 394.875 508.546875 C 395.480469 509.152344 395.867188 508.699219 399.847656 502.730469 C 401.902344 499.652344 404.566406 496.171875 405.765625 495 C 407.933594 492.875 408.488281 491.753906 407.363281 491.753906 C 407.039062 491.753906 406.269531 492.152344 405.652344 492.636719 Z M 440.003906 500.007812 C 437.980469 501.066406 436.167969 502.453125 431.191406 506.761719 C 426.390625 510.914062 421.71875 515.421875 421.71875 515.90625 C 421.71875 516.941406 423.398438 516.023438 426.011719 513.558594 C 430.9375 508.910156 437.890625 503.085938 439.964844 501.867188 C 442.082031 500.628906 444.027344 500.375 447.035156 500.953125 C 448.707031 501.273438 448.886719 501.230469 448.753906 500.535156 C 448.441406 498.902344 442.765625 498.5625 440.003906 500.007812 Z M 440.003906 500.007812 " fill-opacity="1" fill-rule="evenodd"/><path fill="#1e1e1e" d="M 523.535156 314.242188 C 523.984375 314.398438 524.226562 314.886719 524.070312 315.335938 C 523.054688 318.296875 519.972656 320 517.050781 320.335938 C 514.136719 320.667969 510.882812 319.679688 509.757812 316.648438 C 509.59375 316.203125 509.820312 315.707031 510.265625 315.542969 C 510.710938 315.375 511.207031 315.601562 511.371094 316.046875 C 512.097656 318.011719 514.320312 318.914062 516.851562 318.625 C 519.378906 318.335938 521.714844 316.894531 522.441406 314.777344 C 522.597656 314.328125 523.085938 314.089844 523.535156 314.242188 Z M 523.535156 314.242188 " fill-opacity="1" fill-rule="evenodd"/><path fill="#1e1e1e" d="M 502.3125 295.214844 C 502.417969 297.539062 503.972656 299.355469 505.777344 299.273438 C 507.582031 299.1875 508.960938 297.234375 508.851562 294.914062 C 508.746094 292.589844 507.195312 290.773438 505.386719 290.859375 C 503.582031 290.941406 502.203125 292.894531 502.3125 295.214844 Z M 502.3125 295.214844 " fill-opacity="1" fill-rule="nonzero"/><path fill="#1e1e1e" d="M 520.730469 294.035156 C 520.835938 296.359375 522.390625 298.171875 524.195312 298.089844 C 526 298.003906 527.378906 296.054688 527.269531 293.730469 C 527.164062 291.40625 525.613281 289.59375 523.804688 289.675781 C 522 289.757812 520.621094 291.710938 520.730469 294.035156 Z M 520.730469 294.035156 " fill-opacity="1" fill-rule="nonzero"/><path fill="#1e1e1e" d="M 515.878906 300.09375 C 515.933594 300.566406 515.597656 300.996094 515.125 301.050781 C 513.488281 301.238281 512.523438 302.144531 512.257812 303.070312 C 512 303.953125 512.296875 305.160156 513.847656 306.171875 C 514.246094 306.433594 514.355469 306.96875 514.097656 307.363281 C 513.835938 307.761719 513.304688 307.875 512.90625 307.613281 C 510.875 306.285156 510.09375 304.363281 510.601562 302.59375 C 511.101562 300.867188 512.75 299.589844 514.925781 299.339844 C 515.398438 299.285156 515.824219 299.621094 515.878906 300.09375 Z M 515.878906 300.09375 " fill-opacity="1" fill-rule="evenodd"/><path fill="#1e1e1e" d="M 530.507812 288.003906 C 525.539062 283.980469 520.976562 285.058594 519.039062 286.859375 C 518.691406 287.179688 518.144531 287.160156 517.824219 286.8125 C 517.5 286.464844 517.519531 285.917969 517.867188 285.59375 C 520.519531 283.136719 526.050781 282.179688 531.589844 286.667969 C 531.957031 286.964844 532.015625 287.507812 531.714844 287.878906 C 531.417969 288.246094 530.875 288.304688 530.507812 288.003906 Z M 530.507812 288.003906 " fill-opacity="1" fill-rule="evenodd"/><path fill="#1e1e1e" d="M 503.78125 287.316406 C 505.691406 286.882812 507.839844 287.117188 509.480469 287.945312 C 509.90625 288.160156 510.421875 287.988281 510.636719 287.5625 C 510.851562 287.136719 510.679688 286.621094 510.253906 286.40625 C 508.230469 285.386719 505.667969 285.125 503.402344 285.636719 C 501.136719 286.148438 499.023438 287.480469 498.125 289.785156 C 497.953125 290.226562 498.171875 290.726562 498.613281 290.898438 C 499.058594 291.070312 499.554688 290.851562 499.726562 290.410156 C 500.355469 288.800781 501.878906 287.746094 503.78125 287.316406 Z M 503.78125 287.316406 " fill-opacity="1" fill-rule="evenodd"/></g></g></svg>