<svg width="50" height="50" viewBox="0 0 50 50" fill="none" xmlns="http://www.w3.org/2000/svg">
<path d="M50 25C50 26.4833 49.8708 27.9363 49.6232 29.3485C47.5652 41.0827 37.3238 50 25 50C24.6214 50 24.2449 49.9917 23.8705 49.975C10.5875 49.3842 0 38.4286 0 25C0 11.1929 11.1929 0 25 0C38.8071 0 50 11.1929 50 25Z" fill="#1176FF"/>
<path d="M49.6232 29.3485C47.5652 41.0827 37.3238 50 25 50C24.6214 50 24.2449 49.9917 23.8705 49.975C18.3033 44.4065 13.6964 39.7961 13.6604 39.7548C12.9354 39.1271 12.5414 38.1699 12.6506 37.1771C12.8932 34.9684 13.5932 32.7699 15.1932 31.7741C18.1417 29.9393 21.0685 29.1574 21.0685 29.1574C21.1717 28.8366 21.2875 27.7747 21.3482 26.6878C20.9747 26.3 20.6048 25.8952 20.2146 25.5116C19.5842 24.892 19.4283 24.047 19.2336 22.983C19.0943 22.9211 19.0149 22.8015 18.9432 22.692C18.9426 22.6911 18.942 22.6899 18.9411 22.6887C18.7997 22.6274 18.7196 22.5065 18.6473 22.3961C18.6467 22.3952 18.6461 22.394 18.6452 22.3929C18.5039 22.3315 18.4238 22.2107 18.3515 22.1006C18.2634 21.9655 18.2286 21.8039 18.1958 21.6461C18.0771 21.0786 17.9583 20.5113 17.8399 19.944C17.7506 19.5179 17.661 19.0812 17.7214 18.65C17.7506 18.4461 17.8229 18.2324 17.9905 18.1125C18.1577 17.9926 18.4375 18.0214 18.5214 18.2098C18.5214 18.2098 18.25 15.5393 18.25 15.764C18.0232 15.5122 17.8438 14.964 17.9188 14.5402C17.9938 14.1167 18.1286 13.7045 18.1958 13.2798C18.269 12.8131 18.2616 12.3318 18.3955 11.8789C18.5842 11.2405 19.0357 10.7173 19.4952 10.2354C19.8208 9.89434 20.1574 9.56279 20.5244 9.26726C21.2598 8.67618 22.1363 8.23154 23.0741 8.12648C23.375 8.09285 23.6786 8.09434 23.9813 8.09583C24.3205 8.09761 24.6604 8.0991 25 8.10089C25.3396 8.0991 25.6795 8.09761 26.0188 8.09583C26.3214 8.09434 26.625 8.09285 26.9259 8.12648C27.8637 8.23154 28.7402 8.67618 29.4756 9.26726C29.7961 9.52529 30.0932 9.81071 30.3801 10.1062C30.4399 10.164 41.0414 20.7655 49.6232 29.3485Z" fill="#1052E5"/>
<path d="M35.5196 40.2582C33.6695 41.015 30.3554 41.9048 25 41.9048C19.6446 41.9048 16.3304 41.015 14.4804 40.2582C13.2504 39.7552 12.5055 38.498 12.6505 37.177C12.8931 34.9685 13.5932 32.77 15.1933 31.7742C18.1418 29.9393 21.0685 29.1575 21.0685 29.1575C21.1717 28.8366 21.2876 27.7748 21.3482 26.6877C20.9748 26.2999 20.6047 25.8951 20.2144 25.5115C19.4714 24.7813 19.3878 23.7376 19.1226 22.3913C18.6351 22.5298 18.481 22.2978 18.3516 22.1004C18.2634 21.9655 18.2287 21.8039 18.1957 21.646C18.0769 21.0787 17.9584 20.5113 17.8398 19.9439C17.7507 19.5177 17.661 19.0811 17.7215 18.6499C17.7504 18.446 17.8229 18.2324 17.9904 18.1124C18.1578 17.9927 18.4376 18.0216 18.5214 18.2097C18.5214 18.2097 18.2499 15.5393 18.2499 15.7641C18.0232 15.5123 17.8437 14.9639 17.9188 14.5401C17.9938 14.1166 18.1285 13.7043 18.1957 13.2796C18.2691 12.8132 18.2614 12.3318 18.3954 11.8788C18.5843 11.2404 19.0358 10.7171 19.4952 10.2355C19.8207 9.89432 20.1573 9.5628 20.5245 9.26721C21.2598 8.67619 22.1363 8.23146 23.074 8.1264C23.3749 8.09292 23.6784 8.09435 23.981 8.09581C24.3205 8.0975 24.6602 8.09917 24.9999 8.10087C25.3396 8.09917 25.6793 8.0975 26.0188 8.09581C26.3214 8.09435 26.6249 8.09292 26.9259 8.1264C27.8635 8.23146 28.7401 8.67619 29.4754 9.26721C29.8425 9.56283 30.1791 9.89435 30.5046 10.2355C30.9641 10.7171 31.4156 11.2404 31.6044 11.8788C31.7384 12.3318 31.7307 12.8132 31.8042 13.2796C31.8714 13.7043 32.0061 14.1166 32.081 14.5401C32.1562 14.9639 31.9767 15.5123 31.7499 15.7641C31.7499 15.5393 31.4784 18.2097 31.4784 18.2097C31.5623 18.0216 31.842 17.9926 32.0094 18.1124C32.1769 18.2324 32.2494 18.4461 32.2783 18.6499C32.3388 19.0811 32.2492 19.5177 32.16 19.9439C32.0415 20.5113 31.9229 21.0787 31.8041 21.646C31.7711 21.8038 31.7364 21.9655 31.6482 22.1004C31.5189 22.2978 31.3647 22.5298 30.8773 22.3913C30.612 23.7376 30.5284 24.7813 29.7854 25.5115C29.3951 25.8951 29.025 26.2998 28.6516 26.6877C28.7123 27.7748 28.8282 28.8366 28.9313 29.1575C28.9313 29.1575 31.8581 29.9393 34.8065 31.7742C36.4065 32.77 37.1067 34.9685 37.3493 37.177C37.4945 38.498 36.7496 39.7552 35.5196 40.2582Z" fill="white"/>
</svg>
